<svg width="347" height="327" viewBox="0 0 347 327" fill="none" xmlns="http://www.w3.org/2000/svg">
<g clip-path="url(#clip0_217_571)">
<path d="M273.371 0.487799C272.775 0.785564 271.853 1.51644 271.311 2.13904C270.796 2.73457 270.281 3.24889 270.199 3.24889C270.118 3.24889 269.955 2.81578 269.847 2.30146C269.657 1.21868 269.359 0.947981 268.22 0.704355C266.973 0.43366 266.485 1.02919 266.485 2.86992C266.485 4.16926 266.431 4.33167 265.916 4.33167C265.591 4.33167 264.913 4.60237 264.398 4.90013C263.883 5.22497 263.422 5.41446 263.368 5.36032C263.286 5.30618 263.368 4.81893 263.503 4.3046C263.883 3.03234 263.856 2.54508 263.341 2.05783C262.609 1.29989 261.551 1.54351 259.735 2.86992C258.38 3.84442 257.675 4.16926 256.455 4.33167C255.614 4.43995 254.422 4.79186 253.825 5.11669C252.361 5.84757 250.355 8.12141 249.786 9.69144C248.946 11.9382 247.997 12.615 246.316 12.1548C245.421 11.9111 245.232 11.9653 243.388 13.2105C240.786 14.97 239.999 15.7821 239.593 17.1897C239.322 18.0289 238.834 18.7056 237.722 19.653C236.258 20.9253 234.632 22.7119 231.46 26.5287C230.647 27.5032 229.21 28.8837 228.261 29.6146C227.095 30.4538 226.336 31.2929 226.038 31.9426C225.794 32.5111 224.222 34.4059 222.568 36.1384C220.887 37.8708 219.315 39.7928 219.017 40.4154C218.475 41.6606 218.366 42.9328 218.773 43.5825C218.963 43.8803 218.691 44.151 217.472 44.8006C215.33 45.9375 214.598 47.0745 214.788 48.9423C214.869 49.7544 215.14 50.6747 215.357 51.0266C215.818 51.7304 215.682 51.9199 213.893 53.0027C212.321 53.9231 211.643 54.8164 211.779 55.7097C211.887 56.4676 211.751 56.6029 209.203 58.0918C204.459 60.907 201.857 63.4245 201.504 65.563C201.206 67.4849 201.613 67.512 203.998 65.7525C207.766 62.9372 209.339 62.4229 209.501 63.9117C209.556 64.4802 209.285 64.8862 208.173 65.8878C205.787 68.0263 204.405 68.4865 201.857 67.9451C200.501 67.6744 200.122 67.7015 198.495 68.2158C194.645 69.461 189.766 72.0326 181.958 76.9592C177.838 79.5579 177.268 80.0181 177.431 80.5053C177.756 81.6423 177.892 83.077 177.729 83.7808C177.621 84.1868 177.024 85.0801 176.374 85.7568C175.398 86.8396 175.154 87.2998 174.91 88.7886C174.747 89.7631 174.449 91.3602 174.286 92.3347C173.825 94.771 173.961 95.0146 175.723 95.0146C177.594 95.0146 178.38 95.2582 178.38 95.7726C178.38 96.0162 177.187 97.3155 175.75 98.6961C173.392 100.916 173.148 101.214 173.5 101.62C173.69 101.89 174.178 102.242 174.557 102.459C175.262 102.811 175.696 102.729 177.675 101.917C178.136 101.701 178.19 101.782 178.027 102.757C177.865 103.812 177.458 104.299 175.479 105.842C174.612 106.519 174.476 107.006 174.557 109.28C174.612 110.634 175.696 111.662 177.783 112.339C178.786 112.664 180.034 113.178 180.521 113.476C182.934 114.857 187.895 112.556 195.838 106.384C198.576 104.245 198.847 103.948 199.823 101.971C200.42 100.835 200.935 99.8871 201.016 99.8871C201.07 99.8871 201.396 100.429 201.694 101.078C202.073 101.944 202.236 102.865 202.236 104.299C202.236 106.763 202.86 110.444 203.619 112.474C203.917 113.314 204.73 114.802 205.354 115.75C206.357 117.239 206.519 117.618 206.303 118.186C205.842 119.404 206.004 119.892 207.116 120.622C207.794 121.083 208.2 121.543 208.2 121.895C208.2 122.761 209.393 124.575 210.721 125.684C211.941 126.686 211.941 126.713 212.104 128.797C212.456 133.047 212.836 136.566 213.026 136.756C213.134 136.837 214.246 136.729 215.52 136.458C218.149 135.944 217.96 136.16 218.502 132.506C218.691 131.315 218.99 130.043 219.179 129.664C219.505 129.041 219.667 128.987 221.674 128.987C223.409 128.96 224.032 128.852 225.144 128.256C228.586 126.469 232.571 120.568 232.599 117.266C232.599 116.724 232.409 114.721 232.138 112.826C231.433 107.548 231.623 107.196 236.692 104.462C239.755 102.811 241.03 101.89 241.219 101.159C241.301 100.862 241.897 99.5352 242.548 98.2088C244.039 95.1229 244.039 94.8522 242.575 94.4732C240.542 93.9589 240.569 93.986 241.626 92.9032C242.168 92.3347 242.629 91.7392 242.629 91.5497C242.629 91.0354 241.707 90.7106 238.915 90.2504C235.093 89.6549 235.174 89.6819 234.822 88.924C234.388 87.9765 234.415 86.3794 234.903 83.8349C235.12 82.6709 235.31 81.155 235.31 80.5053C235.31 79.3955 235.581 78.8812 238.346 74.902C244.445 66.1314 249.162 59.8784 251.711 57.1985C252.551 56.3323 252.958 56.0886 253.419 56.224C254.178 56.4135 254.178 56.4135 253.202 53.3275C252.768 51.9199 252.388 50.5394 252.388 50.2957C252.388 49.7002 252.849 49.4566 255.506 48.7257C258.515 47.8866 258.461 47.9407 257.675 46.7767C256.618 45.2067 256.753 44.8548 259.003 43.3389L261.009 41.9854L263.422 43.0682C264.723 43.6908 266.323 44.4217 266.973 44.7194C268.112 45.2608 269.738 46.6414 269.738 47.1015C269.738 47.2369 269.359 47.3993 268.898 47.5076C267.759 47.7512 266.133 49.2942 265.157 50.9996C264.289 52.5154 263.07 55.9533 262.798 57.6316C262.663 58.5249 262.5 58.7144 261.931 58.7956C260.928 58.9039 260.548 59.6618 261.172 60.3385C261.633 60.8529 261.633 60.8799 260.847 61.286C260.386 61.5296 259.193 62.6395 258.163 63.7764C257.16 64.9133 255.804 66.1314 255.181 66.5104C254.205 67.0789 254.015 67.3225 254.015 67.9992C254.015 68.4594 253.717 69.4068 253.337 70.1648C252.66 71.4912 252.66 71.5183 253.039 73.8462C253.256 75.1456 253.554 77.2841 253.744 78.6376C254.096 81.4799 254.693 84.7823 255.045 85.9734C255.696 88.1119 256.048 88.4367 259.735 90.2775C261.714 91.2249 263.476 92.1723 263.666 92.3347C263.91 92.5242 264.75 92.6054 265.862 92.5242C268.491 92.3618 270.416 91.3873 276.055 87.381C281.368 83.5913 283.673 82.3461 285.869 82.0483C287.631 81.8047 288.742 80.9926 292.673 76.9863C295.601 74.0357 297.282 71.7348 299.044 68.2699C300.453 65.4547 300.697 63.614 299.83 61.9356C298.664 59.6618 296.712 58.0918 294.218 57.415L293.08 57.1173L293.486 56.1428C293.757 55.4931 293.839 54.7893 293.73 54.1396C293.595 53.2463 293.676 52.9215 294.408 51.9199L295.275 50.7559L292.917 50.5664C291.616 50.4852 290.423 50.3228 290.206 50.2687C290.016 50.1875 289.772 49.5378 289.664 48.8611C289.501 47.6971 289.393 47.5347 288.498 47.1827C287.956 46.9662 287.224 46.4248 286.899 45.9646L286.329 45.1525L287.549 41.6606L288.796 38.1686L285.814 35.0015C284.188 33.2419 282.643 31.5095 282.399 31.1305C281.829 30.2914 281.829 29.3981 282.399 27.0159L282.859 25.094L280.962 23.2804C279.579 21.981 278.739 21.3855 277.817 21.1419L276.57 20.79L275.703 17.2438C275.242 15.2678 274.835 13.5353 274.808 13.4C274.781 13.2376 275.35 12.9939 276.082 12.8044C277.166 12.5337 277.79 12.1277 279.281 10.6389L281.151 8.79815L280.555 8.3109C280.176 8.01313 279.498 7.85071 278.576 7.85071C277.79 7.85071 276.922 7.6883 276.624 7.47174C276.136 7.09277 276.136 7.0657 276.787 6.82207C277.763 6.4431 278.197 5.84757 278.088 4.98134C278.007 4.3046 278.115 4.2234 279.362 3.87149C281.612 3.24889 281.531 3.30303 280.88 2.59922C279.932 1.57058 277.194 0.271243 275.784 0.108826C274.835 0.0276169 274.184 0.135895 273.371 0.487799Z" fill="#0BA197"/>
<path d="M82.8464 21.5471C82.765 21.7907 82.6837 22.1968 82.6837 22.4945C82.6837 23.1442 82.4668 23.1442 81.7078 22.4404L81.0843 21.8719L79.2679 22.7111C76.801 23.8751 74.3611 25.3639 74.1714 25.8512C73.7647 26.9339 74.8762 27.9085 77.3974 28.6935C78.9697 29.1807 79.0511 29.3702 77.9667 30.1823C77.1534 30.8049 76.8552 30.8861 75.9064 30.7237C74.1985 30.4259 71.7044 30.5071 71.0538 30.859C70.3218 31.238 69.9423 32.1313 70.1321 33.1058C70.2676 33.8096 70.3489 33.8367 71.8129 33.8367C73.9545 33.8367 75.0931 34.5676 75.0931 35.894C75.0931 36.6519 74.8762 37.085 74.1443 37.8159C73.2225 38.7363 73.1141 38.7633 71.7315 38.6009C70.0236 38.4114 69.8068 38.6009 69.617 40.3604L69.4814 41.6327L70.9725 41.7951C73.2225 42.0658 74.8762 43.1215 77.1805 45.7473C79.4577 48.3189 81.1927 49.5641 82.8193 49.7536C83.4699 49.8077 85.0964 49.5912 86.8857 49.131C90.5183 48.2647 93.175 47.9941 94.3407 48.4001C95.0727 48.6708 95.3709 48.6167 96.3197 48.1294C96.9432 47.8316 99.3289 47.0466 101.66 46.3699C106.459 45.0164 108.194 44.2855 109.576 43.0674C111.555 41.362 111.989 38.7363 110.742 36.2729C109.929 34.6488 109.874 33.8096 110.606 33.3494C111.311 32.9163 111.311 31.7523 110.606 30.859C110.091 30.2094 110.064 30.1823 109.278 30.6154L108.492 31.0756L108.329 30.074C108.167 28.9371 107.353 27.9626 106.404 27.719C105.347 27.4483 104.941 27.7731 104.615 29.0995C104.263 30.453 104.073 30.5883 103.693 29.7221C103.206 28.6935 102.609 28.5311 101.471 29.0995C100.901 29.3973 100.359 29.668 100.251 29.7221C100.115 29.7763 100.034 29.6138 100.034 29.3973C100.034 28.504 98.4343 27.8814 96.2384 27.9085C93.6901 27.9355 92.9311 28.1521 92.5786 28.91C92.1991 29.7492 91.8467 29.668 92.172 28.8017C92.5244 27.9085 92.5244 26.8798 92.172 26.6633C92.0093 26.555 91.2503 26.582 90.4641 26.6633C89.0544 26.8527 89.0273 26.8798 88.2411 28.3686C87.4821 29.8033 87.3465 29.9116 86.3977 29.9928L85.3675 30.074L86.2079 28.4498C87.455 25.9324 87.1839 23.4149 85.476 21.9261C84.4729 21.0328 83.1175 20.8433 82.8464 21.5471Z" fill="#0BA197"/>
<path d="M282.012 92.2772C279.626 92.5479 275.614 93.5494 273.283 94.4157C272.415 94.7405 270.761 95.6609 269.623 96.4188C266.993 98.2054 266.83 98.8009 268.565 100.452C269.704 101.535 269.731 101.589 269.623 103.159C269.487 105.758 270.273 106.164 272.849 104.837C273.743 104.377 273.77 104.377 274.231 105C274.665 105.568 274.665 105.704 274.286 106.407C273.798 107.382 273.77 110.062 274.204 112.633C274.611 114.826 274.286 115.855 273.12 116.342C271.466 117.019 269.758 116.153 267.834 113.608L266.587 112.011H264.716C263.686 112.011 262.547 111.903 262.168 111.74C261.571 111.524 261.382 111.605 260.541 112.606C258.752 114.691 255.417 121.918 255.607 123.299C255.661 123.732 255.96 124.625 256.285 125.302C256.583 125.979 257.044 127.819 257.288 129.362C257.668 131.88 257.803 132.259 258.535 132.963C259.375 133.721 259.403 133.721 261.869 133.558C264.716 133.342 264.716 133.342 264.716 135.453C264.716 136.211 264.472 137.158 264.038 138.025C263.442 139.189 263.36 139.568 263.523 141.084L263.686 142.789L262.601 143.06C261.544 143.33 261.517 143.33 261.083 142.41L260.622 141.463L258.264 141.625C254.604 141.896 251.514 142.329 249.074 142.924C246.471 143.547 246.282 143.466 243.598 141.246C242.54 140.38 241.7 139.892 241.239 139.892C240.019 139.892 235.682 141.49 232.862 142.978C231.371 143.791 228.742 145.171 227.034 146.091C225.326 147.012 223.32 147.959 222.615 148.23C221.856 148.501 220.609 149.286 219.687 150.125C218.223 151.451 218.088 151.532 218.088 150.937C218.088 149.935 217.41 149.231 215.865 148.555C215.079 148.23 214.401 147.905 214.347 147.878C214.293 147.824 214.564 147.499 214.943 147.12C215.323 146.714 215.648 146.146 215.648 145.794C215.648 144.792 214.238 142.275 213.344 141.733C212.286 141.084 212.042 141.111 211.067 141.95C210.036 142.816 209.982 143.736 210.904 144.224C211.798 144.684 211.771 144.873 210.687 145.685C208.627 147.255 205.319 148.04 203.53 147.391C202.988 147.201 202.798 147.337 202.066 148.501C201.253 149.827 201.226 149.827 200.25 149.61C199.708 149.475 199.165 149.367 199.057 149.367C198.922 149.367 198.84 148.934 198.84 148.419C198.84 147.499 198.813 147.499 197.024 146.958C195.994 146.66 194.53 146.281 193.771 146.118C192.985 145.929 192.334 145.712 192.334 145.631C192.361 145.523 192.524 145.144 192.741 144.765C192.957 144.386 193.12 143.628 193.147 143.06C193.147 142.058 193.093 142.004 191.466 141.246C190.518 140.786 189.596 140.434 189.406 140.434C189.189 140.434 189.813 139.595 190.762 138.566C192.551 136.617 194.747 133.206 195.506 131.149C195.912 130.039 196.129 129.877 198.19 128.848C201.172 127.359 200.955 126.791 197.214 126.087C196.4 125.925 195.641 125.708 195.506 125.573C195.37 125.437 195.614 124.382 196.129 123.055C196.943 120.998 197.539 117.425 197.105 117.425C196.455 117.425 194.123 118.941 193.744 119.617C193.337 120.321 193.147 120.402 191.927 120.402C191.195 120.402 189.786 120.484 188.81 120.565L187.048 120.754L185.692 122.622C184.96 123.624 184.31 124.652 184.255 124.869C184.093 125.546 184.96 125.627 185.909 125.031C187.156 124.273 188.837 124.057 190.301 124.463C190.978 124.652 191.521 124.896 191.521 125.004C191.521 125.383 189.054 126.385 187.752 126.547C186.993 126.628 185.801 126.52 184.77 126.249C183.822 126.006 182.981 125.87 182.9 125.952C182.819 126.033 182.737 128.577 182.737 131.582C182.71 136.807 182.737 137.104 183.334 138.025C183.849 138.864 183.93 139.378 183.93 141.463C183.93 144.115 184.445 146.037 185.665 147.824C186.234 148.663 186.261 148.825 185.936 149.61C185.502 150.639 184.418 151.235 183.822 150.747C183.225 150.26 182.846 150.612 182.846 151.641C182.846 152.128 182.71 152.913 182.547 153.4C182.276 154.131 182.141 154.239 181.219 154.239C180.297 154.239 180.026 154.077 178.806 152.696L177.451 151.18L175.906 152.372C175.065 153.021 174.252 153.752 174.089 153.996C173.872 154.348 173.628 154.375 172.842 154.212C170.755 153.698 165.821 154.672 164.059 155.918C163.218 156.513 163.218 156.405 163.761 159.789C163.869 160.655 163.788 161.034 163.327 161.629C162.785 162.306 162.568 162.387 161.321 162.306L159.938 162.225L159.667 159.816L159.396 157.434L158.501 158.868C158.013 159.68 157.01 161.359 156.251 162.631C154.543 165.5 153.703 166.394 150.992 168.18C148.661 169.696 147.332 170.833 147.332 171.293C147.332 171.428 147.143 171.564 146.926 171.564C146.438 171.564 140.067 174.163 139.579 174.569C139.335 174.758 139.064 174.758 138.739 174.596C138.142 174.271 133.751 174.596 132.639 175.029C131.826 175.354 131.419 176.057 130.253 179.035C128.979 182.338 127.895 183.393 124.913 184.287C123.991 184.557 123.612 184.557 122.934 184.287C121.795 183.826 121.226 184.151 119.681 186.181C118.325 188.022 117.702 188.185 115.94 187.291C114.638 186.615 114.178 185.829 114.123 184.151C114.069 183.42 114.042 182.771 114.015 182.744C114.015 182.716 113.391 182.879 112.632 183.095C111.358 183.474 111.223 183.474 110.247 182.906C109.027 182.202 108.593 182.31 107.617 183.556C106.723 184.774 106.614 186.804 107.427 188.185C107.888 188.97 107.915 189.267 107.698 190.458C107.536 191.216 107.183 192.083 106.885 192.407C106.37 192.949 106.153 192.976 103.713 192.813C102.277 192.705 100.921 192.597 100.704 192.516C100.487 192.462 99.9723 191.866 99.5656 191.189L98.8337 189.971L92.3817 190.106L85.9296 190.242L85.1706 191.108C84.7639 191.595 84.4386 192.137 84.4386 192.326C84.4386 192.516 84.9537 192.922 85.5772 193.247L86.7429 193.842L85.5501 194.356C84.8995 194.627 84.0862 194.925 83.7338 195.006C83.3813 195.087 83.0831 195.277 83.0831 195.439C83.0831 196.008 83.9235 197.253 84.9537 198.173C86.0381 199.148 86.0923 199.175 87.6646 199.012C89.0743 198.85 89.3996 198.931 90.6738 199.608C92.4088 200.555 93.9269 202.369 95.201 205.022C95.933 206.565 96.3396 207.052 97.1258 207.458C97.668 207.756 98.1831 207.999 98.2373 208.027C98.2915 208.081 98.0204 208.595 97.6138 209.19C97.2342 209.786 96.9089 210.327 96.9089 210.436C96.9089 210.544 97.2885 211.356 97.7222 212.276C98.3457 213.549 98.6439 214.686 98.9692 217.176C99.1861 218.963 99.5656 221.128 99.7825 221.967C100.162 223.483 100.162 223.51 99.4572 224.539C98.5626 225.865 96.5023 230.196 94.9842 233.959C93.8727 236.747 93.6558 237.072 91.6226 239.102C89.8334 240.889 86.1465 243.948 84.8181 244.733C84.6555 244.841 83.6524 244.625 82.6223 244.273C81.565 243.921 78.9625 243.244 76.8209 242.757C69.2303 241.078 67.8206 240.645 64.0795 238.859C60.3655 237.072 58.1154 236.368 56.8684 236.612C56.4888 236.693 55.6756 236.531 55.0521 236.26C54.4556 235.989 52.8833 235.583 51.5821 235.34C49.0609 234.907 48.2205 234.555 46.2144 233.12C45.3198 232.497 44.6421 232.2 43.9643 232.2C42.5817 232.2 42.2293 232.389 41.3347 233.688L40.5485 234.825L38.1087 234.988C34.476 235.204 33.229 235.989 32.4157 238.507C32.0904 239.427 32.1446 239.617 32.7681 240.754C33.1477 241.457 33.473 242.188 33.473 242.432C33.473 242.648 32.8766 243.542 32.1446 244.354C31.4398 245.193 30.7621 246.113 30.6536 246.438C30.491 246.953 29.4608 247.792 24.8793 251.121C23.7949 251.906 22.9003 252.664 22.9003 252.772C22.9003 252.908 23.1443 253.449 23.4696 253.991C24.2558 255.317 23.9847 256.048 22.1413 257.455C19.6743 259.377 19.0508 260.162 18.9153 261.543C18.7797 262.734 18.5357 263.005 11.6228 270.016C7.69197 273.995 4.46596 277.352 4.46596 277.487C4.46596 277.622 4.65572 278.461 4.89971 279.382C5.38768 281.304 6.06541 282.684 7.06846 283.875C7.7733 284.742 7.80041 284.769 7.36666 285.662C7.12268 286.176 6.25518 287.07 5.41479 287.692C3.81533 288.883 3.57135 289.506 4.35752 290.616C5.1708 291.807 4.65572 292.917 2.10744 295.569C0.697754 297.031 -0.142636 298.087 0.02002 298.249C0.155567 298.358 3.24604 298.98 6.9058 299.603L13.5205 300.713L14.9031 302.012C15.635 302.716 17.2887 304.015 18.5628 304.881C22.6021 307.724 24.4185 309.97 24.9606 312.948C25.3673 315.195 27.3463 315.438 34.4218 314.112C40.8467 312.867 44.6421 312.65 49.0338 313.246C51.5007 313.571 52.3953 313.787 52.8562 314.22C53.6153 314.924 54.1303 314.897 55.0792 314.112C55.6485 313.652 56.2991 313.462 57.763 313.327C59.254 313.219 60.7179 312.786 63.971 311.513C66.3296 310.593 69.3116 309.591 70.5857 309.294C71.8599 308.996 73.3238 308.563 73.8117 308.319C74.6521 307.913 74.6792 307.859 74.5166 306.776L74.3539 305.639L76.2245 304.475C77.2275 303.826 79.586 302.499 81.4295 301.552C84.3031 300.036 84.8181 299.657 85.1706 298.872C85.8754 297.139 85.9025 295.569 85.2519 293.377C84.3573 290.399 84.4386 288.585 85.5501 286.718C86.7158 284.796 89.4538 282.197 93.6016 279.057C95.4179 277.703 97.668 275.863 98.5897 274.997C100.758 272.993 101.518 272.614 104.093 272.29C105.909 272.073 106.831 271.721 110.843 269.772L115.479 267.525H118.19C119.681 267.525 121.063 267.417 121.226 267.309C121.416 267.201 121.741 266.524 121.931 265.82C122.283 264.656 122.392 264.548 123.341 264.385C124.588 264.169 125.103 263.546 125.103 262.22C125.103 261.489 124.967 261.191 124.615 261.083C124.018 260.947 123.747 259.865 123.747 257.618C123.747 254.559 125.401 251.663 127.868 250.363L129.034 249.741L132.151 251.148C137.031 253.341 136.977 253.314 138.82 252.881C139.688 252.691 140.582 252.502 140.745 252.502C140.935 252.502 141.775 253.124 142.615 253.882C143.456 254.64 144.567 255.425 145.055 255.642C146.275 256.156 150.64 256.156 151.616 255.642C152.022 255.425 154.11 253.395 156.251 251.148C159.721 247.494 160.236 247.061 160.887 247.169C161.809 247.359 163.869 246.519 167.122 244.597C168.532 243.785 170.213 242.838 170.836 242.54L171.948 241.945L173.439 242.621C174.252 243 175.526 243.461 176.231 243.623C177.532 243.948 177.614 244.029 179.674 247.115C182.141 250.769 182.547 251.798 182.764 254.884C183.035 258.538 184.093 259.756 191.521 264.683C194.855 266.903 196.238 268.013 198.271 270.151C201.605 273.643 202.663 274.266 205.075 274.212C206.675 274.184 207.081 274.293 208.139 274.969C209.142 275.592 209.548 276.106 210.362 277.812C211.283 279.734 211.446 279.923 212.747 280.519C213.533 280.898 215.133 281.331 216.326 281.547L218.494 281.899L218.576 282.847C218.657 284.173 219.498 286.934 219.823 287.015C219.985 287.07 220.826 287.232 221.666 287.394C222.805 287.638 223.51 287.99 224.431 288.829C226.438 290.562 227.413 292.592 229.067 298.466C229.88 301.308 229.908 301.254 227.847 302.201C226.98 302.58 226.844 302.824 226.519 304.177C226.329 305.017 225.841 306.478 225.462 307.426C224.811 309.104 224.784 309.158 225.272 309.51C226.383 310.322 228.01 309.835 229.392 308.265C230.043 307.561 231.29 304.584 232.049 301.985C232.537 300.307 233.296 299.467 235.275 298.466C237.281 297.464 237.39 297.302 237.2 295.163C236.956 292.267 236.875 292.023 236.143 292.023C235.655 292.023 233.459 290.778 231.832 289.56C231.317 289.181 233.757 283.929 235.357 282.035L236.143 281.141L237.851 281.574C238.799 281.818 240.318 282.414 241.239 282.901C242.812 283.713 245.875 286.42 246.526 287.557C246.824 288.098 246.824 288.098 247.23 287.584C247.881 286.745 248.017 284.958 247.502 283.686C246.553 281.358 244.926 280.302 235.98 276.188C231.426 274.103 226.492 271.423 226.492 271.071C226.492 270.909 227.034 270.097 227.712 269.285C228.389 268.473 228.932 267.715 228.932 267.634C228.932 267.201 226.519 266.849 223.591 266.849C221.043 266.849 220.013 266.74 218.766 266.307C213.832 264.602 210.714 260.758 209.847 255.29C209.223 251.473 208.518 250.444 204.127 247.142C202.635 246.005 201.063 244.706 200.629 244.246C199.03 242.54 198.732 240.754 199.681 238.48C200.223 237.153 200.25 237.045 199.816 235.989C199.22 234.501 199.247 232.145 199.87 231.604C200.114 231.36 201.931 230.251 203.91 229.114L207.488 227.083L208.708 227.598C209.359 227.896 210.226 228.166 210.606 228.193C210.985 228.22 211.31 228.329 211.31 228.41C211.31 228.491 210.904 229.276 210.416 230.169L209.548 231.794L210.307 233.282C210.714 234.094 211.175 235.286 211.31 235.908C211.527 236.72 211.717 237.018 211.988 236.91C212.53 236.693 214.021 234.392 214.021 233.77C214.021 233.472 214.401 232.849 214.862 232.389L215.729 231.55L216.434 232.47C217.139 233.418 217.79 234.04 219.308 235.286C220.094 235.935 220.121 236.016 220.121 238.344C220.121 239.644 220.257 240.943 220.392 241.187C220.555 241.43 221.233 242.053 221.937 242.594C222.751 243.217 223.266 243.84 223.374 244.381C223.591 245.382 224.811 246.411 226.817 247.304C228.2 247.873 228.417 248.089 228.688 249.01L229.013 250.038H230.558C233.513 250.011 235.817 251.121 239.233 254.153C240.697 255.452 241.456 255.94 242.432 256.183C244.519 256.643 248.64 259.026 250.592 260.866C251.568 261.787 251.676 261.787 253.71 261.272C254.333 261.137 254.414 261.191 254.414 261.814C254.414 262.328 254.577 262.545 255.065 262.68C255.689 262.815 255.716 262.896 255.58 264.9C255.445 266.876 255.499 267.146 256.692 270.205L257.966 273.399L257.017 275.213L256.095 277.027L256.556 278.38C257.18 280.248 258.671 282.197 260.866 283.984C263.74 286.339 264.364 287.124 264.553 288.558C264.689 289.533 264.96 289.993 265.583 290.534C266.939 291.671 268.484 292.321 270.897 292.835L273.174 293.268L272.442 293.756C272.035 294.026 271.548 294.649 271.331 295.163C270.978 295.975 270.978 296.192 271.358 296.896C271.846 297.843 273.174 298.872 274.448 299.305C275.722 299.711 279.68 299.684 283.557 299.197C287.867 298.655 289.657 298.655 289.657 299.197C289.657 300.063 288.843 301.173 288.003 301.471C286.783 301.904 285.726 301.85 282.554 301.227C278.948 300.523 276.265 300.523 275.018 301.2C273.798 301.85 272.849 303.609 272.849 305.287C272.849 307.209 273.499 307.832 276.265 308.671C277.756 309.131 278.65 309.564 278.813 309.916C278.975 310.187 279.165 311.919 279.219 313.733C279.355 316.602 279.436 317.117 279.924 317.631C280.656 318.416 281.822 318.876 282.771 318.768C283.693 318.66 284.777 317.225 284.777 316.088C284.777 315.655 284.858 315.303 284.994 315.303C285.102 315.303 286.024 316.467 287.054 317.875C288.084 319.282 289.006 320.446 289.142 320.446C289.575 320.446 290.145 319.228 290.307 317.902C290.389 317.171 290.524 316.494 290.605 316.44C290.687 316.359 291.581 317.117 292.612 318.091C293.777 319.228 294.699 319.905 295.078 319.905C295.675 319.905 295.675 319.824 295.566 317.766C295.431 315.222 294.807 314.085 292.801 312.596C290.28 310.728 290.443 310.972 290.633 309.456L290.822 308.048L293.343 309.267C296.949 310.999 298.874 310.945 298.874 309.05C298.874 308.103 298.06 307.534 295.431 306.533L293.452 305.775V303.771V301.741L294.211 302.147C294.645 302.364 295.566 302.689 296.298 302.878C297.112 303.068 298.196 303.69 299.226 304.529C301.151 306.072 301.937 306.343 302.913 305.802C304.052 305.152 303.916 304.611 302.154 302.77C301.232 301.822 300.5 300.848 300.5 300.604C300.5 299.738 298.359 298.087 295.051 296.327C291.039 294.216 289.304 292.673 288.057 290.047C287.108 288.017 286.729 286.609 287.135 286.609C287.271 286.609 288.301 286.907 289.385 287.286C291.771 288.098 292.259 288.125 292.612 287.449C293.045 286.664 292.205 285.797 289.169 283.957C287.705 283.063 285.997 281.764 285.373 281.087C284.099 279.707 284.045 279.301 284.506 275.917C284.885 273.291 284.994 273.075 285.726 273.075C286.566 273.075 287.569 274.374 289.548 278.028C291.744 282.116 293.371 283.415 294.374 281.953C294.916 281.168 294.916 279.734 294.401 279.301C293.723 278.759 292.855 277.406 293.127 277.406C293.289 277.406 294.211 278.137 295.187 279.03C297.057 280.708 297.6 280.925 298.467 280.275C299.036 279.869 299.172 280.086 296.027 276.431C294.563 274.699 295.458 274.726 298.359 276.512C300.338 277.731 300.88 277.947 301.07 277.649C301.639 276.729 301.205 275.809 299.335 274.076C298.467 273.291 298.277 273.02 298.82 273.372C300.039 274.239 300.473 273.887 301.259 271.559C301.612 270.53 302.154 269.42 302.452 269.095C303.076 268.419 305.895 267.39 307.061 267.39C307.495 267.39 308.823 267.119 310.07 266.822C311.778 266.361 312.754 266.28 314.435 266.388C315.709 266.47 316.82 266.415 317.2 266.253C317.552 266.091 317.932 266.009 318.013 266.091C318.094 266.199 317.715 267.255 317.2 268.473C316.251 270.611 316.007 271.721 316.441 271.721C316.983 271.721 321.591 268.635 322.54 267.634C323.354 266.794 323.57 266.388 323.489 265.766C323.435 265.062 323.598 264.845 324.899 264.006C327.339 262.463 328.531 262.003 332.652 260.866C337.288 259.621 337.938 259.323 338.372 258.186L338.697 257.347L335.526 255.831C332.245 254.261 331.107 253.395 326.281 248.793L324.221 246.817L325.116 245.193C325.929 243.677 326.01 243.325 326.092 240.781C326.146 238.886 326.417 237.072 326.932 234.988L327.691 231.956L327.122 227.544C326.796 224.918 326.661 223.077 326.824 222.969C326.959 222.888 328.342 221.561 329.914 220.045L332.733 217.257L332.354 216.391C330.971 213.224 330.05 211.004 330.104 210.95C330.158 210.896 330.836 211.004 331.622 211.167C332.517 211.356 333.113 211.356 333.276 211.194C333.411 211.058 333.682 209.84 333.926 208.487C334.658 204.047 336.42 201.286 339.402 199.933C340.514 199.418 341.219 199.31 343.496 199.31H346.261L346.424 193.084C346.505 189.646 346.668 183.15 346.749 178.656L346.912 170.427L346.207 170.887C345.204 171.537 342.439 171.32 338.725 170.265C333.547 168.83 332.517 168.722 330.348 169.371C327.989 170.075 327.881 170.075 326.281 169.263C325.549 168.911 324.411 168.478 323.76 168.316L322.54 167.991L322.811 166.502C323.055 165.067 323.055 165.013 322.215 164.147C321.646 163.578 321.158 162.604 320.805 161.467C320.29 159.734 319.829 159.166 317.85 157.758C317.362 157.406 317.254 156.973 317.118 154.564L316.956 151.749L318.691 152.886C319.64 153.508 320.534 154.104 320.697 154.266C321.158 154.7 321.835 154.537 322.296 153.833C322.567 153.454 323.055 153.021 323.435 152.886C324.872 152.344 323.896 149.421 321.7 147.689C320.995 147.12 319.667 146.118 318.772 145.469C317.85 144.819 316.739 143.818 316.332 143.249L315.546 142.22L315.627 138.106L315.709 133.991L314.868 133.044C313.865 131.88 312.645 131.176 308.986 129.633C307.332 128.929 305.732 128.036 305.028 127.413C303.672 126.222 297.708 119.699 296.759 118.372L296.136 117.506L296.705 115.774C298.684 109.899 297.085 107.734 290.172 106.922C289.06 106.786 287.623 106.407 287 106.083L285.834 105.487L287.434 104.215C289.169 102.834 290.226 101.562 290.036 101.075C289.982 100.912 289.521 100.533 289.06 100.236C288.599 99.9379 287.922 99.5047 287.569 99.2882C286.783 98.7739 286.783 98.3408 287.596 97.5828C287.949 97.258 288.301 96.6895 288.41 96.3105C288.518 95.9316 288.789 95.1736 289.033 94.6052C289.467 93.6307 289.44 93.5494 288.952 93.0622C288.491 92.602 285.617 91.9253 284.506 92.0065C284.289 92.0336 283.177 92.1689 282.012 92.2772Z" fill="#0BA197"/>
<path d="M112.504 100.563C111.826 100.78 110.958 101.294 110.579 101.7C109.82 102.512 108.979 104.434 108.979 105.354C108.979 105.896 109.061 105.923 110.742 105.76C112.666 105.571 114.7 104.813 115.676 103.893C116.353 103.243 116.706 101.862 116.462 100.834C116.299 100.238 116.163 100.157 114.998 100.184C114.293 100.184 113.181 100.374 112.504 100.563Z" fill="#0BA197"/>
<path d="M121.043 103.053C119.688 103.216 117.98 104.488 114.239 108.17L111.447 110.904L110.579 110.01C109.413 108.819 108.193 108.413 106.946 108.819C106.431 108.982 105.998 109.225 105.998 109.361C105.998 109.496 106.486 110.498 107.109 111.635C107.841 112.988 108.519 113.854 109.142 114.233C109.657 114.558 110.064 114.856 110.064 114.883C110.064 114.91 108.925 115.533 107.516 116.236C104.507 117.752 102.609 119.458 102.175 121.055C101.769 122.652 101.958 122.895 103.639 122.895C106.242 122.895 107.624 123.193 107.624 123.735C107.624 123.978 106.675 125.657 105.51 127.416C104.344 129.176 103.314 130.746 103.205 130.935C103.043 131.179 103.205 131.179 103.883 130.962C106.73 130.042 107.895 129.825 108.193 130.123C108.627 130.556 107.868 131.801 106.567 132.776C105.428 133.615 105.211 134.156 105.808 134.86C106.892 136.187 108.383 136.457 111.284 135.781C113.642 135.212 114.537 135.185 115.052 135.591C115.865 136.268 115.486 137.811 114.049 139.733L113.48 140.491L114.076 142.169C115.106 145.092 114.862 145.959 112.395 148.287C110.606 149.992 110.471 149.992 106.974 148.314C105.645 147.664 104.561 147.312 104.29 147.42C103.72 147.637 103.693 148.936 104.208 150.452L104.615 151.562L103.476 151.643C101.796 151.752 101.823 152.455 103.531 153.511C105.049 154.431 105.184 154.81 104.371 156.11C103.585 157.409 102.121 158.221 98.9492 159.169C97.404 159.629 96.0485 160.089 95.9401 160.197C95.5334 160.657 94.5575 163.527 94.693 163.852C94.8015 164.149 95.8587 164.258 98.9492 164.393L103.07 164.555L103.802 165.422C104.48 166.234 104.642 166.288 106.35 166.315C107.353 166.342 108.166 166.423 108.166 166.504C108.166 166.802 106.35 168.318 105.483 168.751C104.805 169.13 104.507 169.103 102.311 168.508C100.982 168.129 99.7083 167.885 99.4643 167.966C98.9763 168.129 96.916 170.24 96.2383 171.296C95.9129 171.756 94.5033 172.352 90.0573 173.813C84.3101 175.735 84.283 175.735 84.771 176.277C86.0722 177.738 88.8374 177.955 93.4731 176.899C95.1268 176.52 96.8618 176.222 97.3226 176.222C97.9461 176.222 98.2172 176.385 98.4612 176.899C98.6239 177.278 98.8679 177.576 99.0034 177.576C99.1118 177.576 99.8167 177.143 100.549 176.628C103.205 174.707 104.534 174.517 106.296 175.843C107.462 176.683 108.275 176.656 111.42 175.681C112.802 175.221 114.049 174.869 114.185 174.869C114.293 174.869 114.754 175.41 115.215 176.087C116.353 177.738 117.736 178.767 118.549 178.55C119.308 178.361 119.823 177.359 119.823 176.06C119.823 175.275 119.905 175.14 120.311 175.248C122.914 176.033 125.787 176.141 128.607 175.546C131.182 175.004 134.734 172.974 134.734 172.027C134.734 171.458 133.785 170.836 132.158 170.267C131.264 169.969 130.45 169.617 130.315 169.482C130.179 169.347 130.667 168.832 131.399 168.291C132.131 167.777 132.944 167.073 133.215 166.775C133.514 166.45 134.002 166.207 134.3 166.207C135.737 166.207 139.64 163.77 140.969 162.065C141.484 161.415 141.538 161.226 141.24 160.522C140.779 159.412 139.044 157.896 137.797 157.572C137.228 157.409 135.466 157.274 133.866 157.274C132.158 157.274 130.938 157.165 130.938 157.003C130.938 156.868 131.562 155.189 132.321 153.295C134.734 147.393 134.517 145.065 131.318 142.142L129.556 140.518L129.718 139.327C129.935 137.892 129.664 137.621 128.363 138.054C127.414 138.379 126.33 138.081 126.33 137.513C126.33 137.351 126.818 136.105 127.387 134.725C128.688 131.666 128.932 130.475 128.498 129.365C128.146 128.553 127.007 127.768 126.194 127.768C125.923 127.768 125.408 127.524 124.974 127.227C124.568 126.929 123.917 126.577 123.51 126.415C122.805 126.171 122.805 126.144 123.185 125.196C123.917 123.464 125.164 122.002 129.149 118.077C132.917 114.369 133.649 113.394 133.27 112.474C132.89 111.445 129.474 111.256 124.432 111.932C122.86 112.149 121.477 112.338 121.314 112.338C120.718 112.338 123.998 109.388 127.333 106.897C129.285 105.436 130.965 104.109 131.047 104.001C131.101 103.893 131.074 103.622 130.938 103.405C130.748 103.081 129.827 102.999 126.411 102.972C124.052 102.945 121.64 102.999 121.043 103.053Z" fill="#0BA197"/>
<path d="M91.9548 128.472C90.1655 128.932 89.2167 129.419 88.4034 130.312C87.9697 130.773 87.4546 131.016 86.8853 131.016C85.8009 131.016 84.8792 131.883 85.3672 132.478C85.5298 132.695 86.0991 132.938 86.6142 133.019C87.4275 133.182 87.563 133.317 87.563 133.967C87.563 134.589 87.3733 134.806 86.4516 135.212C85.5569 135.618 85.2587 135.645 84.9063 135.402C82.9816 133.994 79.4031 133.344 77.4241 133.994C76.15 134.4 74.5505 135.781 74.5505 136.43C74.5505 136.728 74.7945 137.107 75.0656 137.296C75.3638 137.513 75.7434 138 75.9331 138.406C76.3669 139.381 75.9602 139.814 74.1981 140.22C71.9752 140.707 71.8396 140.788 71.8396 141.14C71.8396 141.709 72.8969 142.9 73.7915 143.36C74.2523 143.604 75.4723 143.928 76.5566 144.118L78.4814 144.443L76.9633 144.957C75.1469 145.526 74.2252 145.363 73.7915 144.389C73.3306 143.441 72.8698 143.685 72.3276 145.201C72.0836 145.932 71.8125 146.554 71.7312 146.635C71.6498 146.717 71.0263 146.581 70.3215 146.338C69.6166 146.094 68.8034 145.905 68.5323 145.905C67.8003 145.905 66.9599 146.879 66.9599 147.745C66.9599 148.341 67.1497 148.611 67.8274 148.909L68.6949 149.315L67.0141 149.694C66.0924 149.884 65.1978 150.209 65.0352 150.398C64.7098 150.777 65.008 151.535 65.7129 152.131C66.3364 152.645 66.2551 152.997 65.1707 154.242C64.6556 154.865 64.249 155.568 64.3032 155.812C64.3574 156.083 65.496 156.732 67.0955 157.463L69.8064 158.654L73.0595 158.357C77.9121 157.923 82.5749 157.301 84.7166 156.814C88.6745 155.92 92.5783 153.971 94.3404 151.968C96.1567 149.884 97.4851 146.148 97.2682 143.793L97.1327 142.521L99.7352 140.761L102.338 139.002L102.365 135.889C102.392 133.507 102.311 132.505 101.931 131.558C101.307 129.988 100.874 129.717 99.6267 130.177C98.9761 130.394 98.5423 130.421 98.3255 130.258C98.1357 130.096 97.4037 129.825 96.6718 129.636C95.5332 129.365 95.3977 129.257 95.5061 128.688C95.6145 128.093 95.5332 128.039 94.503 128.066C93.9066 128.066 92.7409 128.255 91.9548 128.472Z" fill="#0BA197"/>
<path d="M171.196 258.136C167.048 261.519 166.56 262.061 166.018 264.253C165.72 265.39 165.503 267.177 165.503 268.422C165.503 270.317 165.611 270.75 166.208 271.67C167.075 272.97 169.434 274.35 170.383 274.107C171.277 273.89 173.066 271.454 173.934 269.342C175.317 265.932 175.777 261.249 175.018 258.677C174.639 257.486 173.907 256.322 173.527 256.376C173.446 256.376 172.389 257.161 171.196 258.136Z" fill="#0BA197"/>
<path d="M169.162 276.786C168.485 277.328 166.777 278.41 165.34 279.223C161.897 281.172 161.734 281.496 161.789 286.883C161.816 290.159 161.707 291.241 161.138 293.786C160.379 297.116 160.162 299.985 160.677 300.499C160.921 300.743 161.328 300.716 162.439 300.472C163.551 300.201 164.201 299.795 165.421 298.658C166.994 297.143 167.59 296.98 168.349 297.901C168.539 298.117 168.783 298.307 168.918 298.307C169.217 298.307 170.166 296.385 171.304 293.515L172.199 291.296L171.467 289.401C170.572 287.181 170.681 286.396 171.982 285.611C173.093 284.907 173.337 283.662 172.931 280.847C172.66 278.789 171.44 276.001 170.789 275.92C170.572 275.866 169.84 276.272 169.162 276.786Z" fill="#0BA197"/>
<path d="M218.692 308.079C217.851 308.187 215.384 308.809 213.215 309.432C208.39 310.813 206.357 310.84 203.781 309.567L202.209 308.809L200.393 309.351C199.39 309.649 197.871 310.028 197.031 310.217C194.754 310.677 193.805 311.408 193.154 313.249C192.531 315.09 192.694 315.523 194.591 317.066C196.57 318.636 200.04 320.314 206.628 322.831C209.962 324.104 213.703 325.593 214.95 326.134L217.228 327.108L217.878 326.296C219.288 324.591 219.451 324.05 219.315 321.316C219.071 315.55 219.125 314.196 219.749 313.33C220.508 312.247 220.914 310.921 220.996 309.27C221.077 307.727 221.077 307.727 218.692 308.079Z" fill="#0BA197"/>
</g>
<defs>
<clipPath id="clip0_217_571">
<rect width="347" height="327" fill="white"/>
</clipPath>
</defs>
</svg>
