<svg width="364" height="347" viewBox="0 0 364 347" fill="none" xmlns="http://www.w3.org/2000/svg">
<g clip-path="url(#clip0_217_571)">
<g filter="url(#filter0_d_217_571)">
<path d="M278.371 7.40479C277.775 7.70256 276.853 8.43343 276.311 9.05603C275.796 9.65156 275.281 10.1659 275.199 10.1659C275.118 10.1659 274.955 9.73277 274.847 9.21845C274.657 8.13567 274.359 7.86497 273.22 7.62135C271.973 7.35065 271.485 7.94618 271.485 9.78691C271.485 11.0862 271.431 11.2487 270.916 11.2487C270.591 11.2487 269.913 11.5194 269.398 11.8171C268.883 12.142 268.422 12.3314 268.368 12.2773C268.286 12.2232 268.368 11.7359 268.503 11.2216C268.883 9.94933 268.856 9.46208 268.341 8.97482C267.609 8.21688 266.551 8.4605 264.735 9.78691C263.38 10.7614 262.675 11.0862 261.455 11.2487C260.614 11.3569 259.422 11.7088 258.825 12.0337C257.361 12.7646 255.355 15.0384 254.786 16.6084C253.946 18.8552 252.997 19.5319 251.316 19.0718C250.421 18.8281 250.232 18.8823 248.388 20.1275C245.786 21.887 244.999 22.6991 244.593 24.1067C244.322 24.9459 243.834 25.6226 242.722 26.57C241.258 27.8423 239.632 29.6289 236.46 33.4457C235.647 34.4202 234.21 35.8007 233.261 36.5316C232.095 37.3708 231.336 38.2099 231.038 38.8596C230.794 39.428 229.222 41.3229 227.568 43.0554C225.887 44.7878 224.315 46.7098 224.017 47.3324C223.475 48.5776 223.366 49.8498 223.773 50.4995C223.963 50.7973 223.691 51.068 222.472 51.7176C220.33 52.8545 219.598 53.9915 219.788 55.8593C219.869 56.6713 220.14 57.5917 220.357 57.9436C220.818 58.6474 220.682 58.8369 218.893 59.9197C217.321 60.8401 216.643 61.7333 216.779 62.6266C216.887 63.3846 216.751 63.5199 214.203 65.0088C209.459 67.824 206.857 70.3415 206.504 72.48C206.206 74.4019 206.613 74.429 208.998 72.6694C212.766 69.8542 214.339 69.3399 214.501 70.8287C214.556 71.3972 214.285 71.8032 213.173 72.8048C210.787 74.9433 209.405 75.4035 206.857 74.8621C205.501 74.5914 205.122 74.6184 203.495 75.1328C199.645 76.378 194.766 78.9496 186.958 83.8762C182.838 86.4749 182.268 86.9351 182.431 87.4223C182.756 88.5593 182.892 89.9939 182.729 90.6978C182.621 91.1038 182.024 91.9971 181.374 92.6738C180.398 93.7566 180.154 94.2168 179.91 95.7056C179.747 96.6801 179.449 98.2772 179.286 99.2517C178.825 101.688 178.961 101.932 180.723 101.932C182.594 101.932 183.38 102.175 183.38 102.69C183.38 102.933 182.187 104.233 180.75 105.613C178.392 107.833 178.148 108.131 178.5 108.537C178.69 108.807 179.178 109.159 179.557 109.376C180.262 109.728 180.696 109.646 182.675 108.834C183.136 108.618 183.19 108.699 183.027 109.674C182.865 110.729 182.458 111.216 180.479 112.759C179.612 113.436 179.476 113.923 179.557 116.197C179.612 117.551 180.696 118.579 182.783 119.256C183.786 119.581 185.034 120.095 185.521 120.393C187.934 121.774 192.895 119.473 200.838 113.301C203.576 111.162 203.847 110.865 204.823 108.888C205.42 107.752 205.935 106.804 206.016 106.804C206.07 106.804 206.396 107.346 206.694 107.995C207.073 108.861 207.236 109.782 207.236 111.216C207.236 113.68 207.86 117.361 208.619 119.391C208.917 120.231 209.73 121.719 210.354 122.667C211.357 124.156 211.519 124.535 211.303 125.103C210.842 126.321 211.004 126.809 212.116 127.539C212.794 128 213.2 128.46 213.2 128.812C213.2 129.678 214.393 131.492 215.721 132.601C216.941 133.603 216.941 133.63 217.104 135.714C217.456 139.964 217.836 143.483 218.026 143.673C218.134 143.754 219.246 143.646 220.52 143.375C223.149 142.861 222.96 143.077 223.502 139.423C223.691 138.232 223.99 136.96 224.179 136.581C224.505 135.958 224.667 135.904 226.674 135.904C228.409 135.877 229.032 135.769 230.144 135.173C233.586 133.386 237.571 127.485 237.599 124.183C237.599 123.641 237.409 121.638 237.138 119.743C236.433 114.465 236.623 114.113 241.692 111.379C244.755 109.728 246.03 108.807 246.219 108.076C246.301 107.779 246.897 106.452 247.548 105.126C249.039 102.04 249.039 101.769 247.575 101.39C245.542 100.876 245.569 100.903 246.626 99.8202C247.168 99.2517 247.629 98.6562 247.629 98.4667C247.629 97.9524 246.707 97.6276 243.915 97.1674C240.093 96.5718 240.174 96.5989 239.822 95.841C239.388 94.8935 239.415 93.2964 239.903 90.7519C240.12 89.5879 240.31 88.072 240.31 87.4223C240.31 86.3125 240.581 85.7982 243.346 81.8189C249.445 73.0484 254.162 66.7954 256.711 64.1155C257.551 63.2492 257.958 63.0056 258.419 63.141C259.178 63.3305 259.178 63.3305 258.202 60.2445C257.768 58.8369 257.388 57.4564 257.388 57.2127C257.388 56.6172 257.849 56.3736 260.506 55.6427C263.515 54.8035 263.461 54.8577 262.675 53.6937C261.618 52.1237 261.753 51.7718 264.003 50.2559L266.009 48.9024L268.422 49.9852C269.723 50.6078 271.323 51.3386 271.973 51.6364C273.112 52.1778 274.738 53.5583 274.738 54.0185C274.738 54.1539 274.359 54.3163 273.898 54.4246C272.759 54.6682 271.133 56.2112 270.157 57.9165C269.289 59.4324 268.07 62.8703 267.798 64.5486C267.663 65.4419 267.5 65.6314 266.931 65.7126C265.928 65.8208 265.548 66.5788 266.172 67.2555C266.633 67.7699 266.633 67.7969 265.847 68.203C265.386 68.4466 264.193 69.5564 263.163 70.6934C262.16 71.8303 260.804 73.0484 260.181 73.4274C259.205 73.9959 259.015 74.2395 259.015 74.9162C259.015 75.3764 258.717 76.3238 258.337 77.0818C257.66 78.4082 257.66 78.4353 258.039 80.7632C258.256 82.0626 258.554 84.2011 258.744 85.5545C259.096 88.3968 259.693 91.6993 260.045 92.8904C260.696 95.0289 261.048 95.3537 264.735 97.1944C266.714 98.1419 268.476 99.0893 268.666 99.2517C268.91 99.4412 269.75 99.5224 270.862 99.4412C273.491 99.2788 275.416 98.3043 281.055 94.298C286.368 90.5083 288.673 89.2631 290.869 88.9653C292.631 88.7217 293.742 87.9096 297.673 83.9033C300.601 80.9527 302.282 78.6518 304.044 75.1869C305.453 72.3717 305.697 70.5309 304.83 68.8526C303.664 66.5788 301.712 65.0088 299.218 64.332L298.08 64.0343L298.486 63.0598C298.757 62.4101 298.839 61.7063 298.73 61.0566C298.595 60.1633 298.676 59.8385 299.408 58.8369L300.275 57.6729L297.917 57.4834C296.616 57.4022 295.423 57.2398 295.206 57.1857C295.016 57.1045 294.772 56.4548 294.664 55.7781C294.501 54.6141 294.393 54.4516 293.498 54.0997C292.956 53.8832 292.224 53.3418 291.899 52.8816L291.329 52.0695L292.549 48.5776L293.796 45.0856L290.814 41.9184C289.188 40.1589 287.643 38.4265 287.399 38.0475C286.829 37.2083 286.829 36.3151 287.399 33.9329L287.859 32.011L285.962 30.1973C284.579 28.898 283.739 28.3025 282.817 28.0588L281.57 27.7069L280.703 24.1608C280.242 22.1848 279.835 20.4523 279.808 20.317C279.781 20.1545 280.35 19.9109 281.082 19.7214C282.166 19.4507 282.79 19.0447 284.281 17.5559L286.151 15.7151L285.555 15.2279C285.176 14.9301 284.498 14.7677 283.576 14.7677C282.79 14.7677 281.922 14.6053 281.624 14.3887C281.136 14.0098 281.136 13.9827 281.787 13.7391C282.763 13.3601 283.197 12.7646 283.088 11.8983C283.007 11.2216 283.115 11.1404 284.362 10.7885C286.612 10.1659 286.531 10.22 285.88 9.51622C284.932 8.48757 282.194 7.18823 280.784 7.02582C279.835 6.94461 279.184 7.05289 278.371 7.40479Z" fill="#111111"/>
</g>
<g filter="url(#filter1_d_217_571)">
<path d="M87.8464 28.4641C87.765 28.7077 87.6837 29.1138 87.6837 29.4115C87.6837 30.0612 87.4668 30.0612 86.7078 29.3574L86.0843 28.7889L84.2679 29.6281C81.801 30.7921 79.3611 32.2809 79.1714 32.7682C78.7647 33.8509 79.8762 34.8254 82.3974 35.6105C83.9697 36.0977 84.0511 36.2872 82.9667 37.0993C82.1534 37.7219 81.8552 37.8031 80.9064 37.6407C79.1985 37.3429 76.7044 37.4241 76.0538 37.776C75.3218 38.155 74.9423 39.0483 75.1321 40.0228C75.2676 40.7266 75.3489 40.7537 76.8129 40.7537C78.9545 40.7537 80.0931 41.4846 80.0931 42.811C80.0931 43.5689 79.8762 44.002 79.1443 44.7329C78.2225 45.6533 78.1141 45.6803 76.7315 45.5179C75.0236 45.3284 74.8068 45.5179 74.617 47.2774L74.4814 48.5497L75.9725 48.7121C78.2225 48.9828 79.8762 50.0385 82.1805 52.6643C84.4577 55.2359 86.1927 56.4811 87.8193 56.6706C88.4699 56.7247 90.0964 56.5081 91.8857 56.048C95.5183 55.1817 98.175 54.911 99.3407 55.3171C100.073 55.5878 100.371 55.5336 101.32 55.0464C101.943 54.7486 104.329 53.9636 106.66 53.2869C111.459 51.9334 113.194 51.2025 114.576 49.9844C116.555 48.279 116.989 45.6533 115.742 43.1899C114.929 41.5658 114.874 40.7266 115.606 40.2664C116.311 39.8333 116.311 38.6693 115.606 37.776C115.091 37.1264 115.064 37.0993 114.278 37.5324L113.492 37.9926L113.329 36.991C113.167 35.8541 112.353 34.8796 111.404 34.636C110.347 34.3653 109.941 34.6901 109.615 36.0165C109.263 37.37 109.073 37.5053 108.693 36.6391C108.206 35.6105 107.609 35.448 106.471 36.0165C105.901 36.3143 105.359 36.585 105.251 36.6391C105.115 36.6932 105.034 36.5308 105.034 36.3143C105.034 35.421 103.434 34.7984 101.238 34.8254C98.6901 34.8525 97.9311 35.0691 97.5786 35.827C97.1991 36.6662 96.8467 36.585 97.172 35.7187C97.5244 34.8254 97.5244 33.7968 97.172 33.5802C97.0093 33.472 96.2503 33.499 95.4641 33.5802C94.0544 33.7697 94.0273 33.7968 93.2411 35.2856C92.4821 36.7203 92.3465 36.8286 91.3977 36.9098L90.3675 36.991L91.2079 35.3668C92.455 32.8494 92.1839 30.3319 90.476 28.8431C89.4729 27.9498 88.1175 27.7603 87.8464 28.4641Z" fill="#111111"/>
</g>
<g filter="url(#filter2_d_217_571)">
<path d="M287.012 99.2771C284.626 99.5478 280.614 100.549 278.283 101.416C277.415 101.74 275.761 102.661 274.623 103.419C271.993 105.205 271.83 105.801 273.565 107.452C274.704 108.535 274.731 108.589 274.623 110.159C274.487 112.758 275.273 113.164 277.849 111.837C278.743 111.377 278.77 111.377 279.231 112C279.665 112.568 279.665 112.704 279.286 113.407C278.798 114.382 278.77 117.062 279.204 119.633C279.611 121.826 279.286 122.855 278.12 123.342C276.466 124.019 274.758 123.152 272.834 120.608L271.586 119.011H269.716C268.686 119.011 267.547 118.903 267.168 118.74C266.571 118.524 266.381 118.605 265.541 119.606C263.752 121.691 260.417 128.918 260.607 130.299C260.661 130.732 260.96 131.625 261.285 132.302C261.583 132.979 262.044 134.819 262.288 136.362C262.668 138.88 262.803 139.259 263.535 139.963C264.375 140.721 264.403 140.721 266.869 140.558C269.716 140.342 269.716 140.342 269.716 142.453C269.716 143.211 269.472 144.158 269.038 145.025C268.442 146.189 268.36 146.568 268.523 148.084L268.686 149.789L267.601 150.06C266.544 150.33 266.517 150.33 266.083 149.41L265.622 148.463L263.264 148.625C259.604 148.896 256.514 149.329 254.074 149.924C251.471 150.547 251.282 150.466 248.598 148.246C247.54 147.38 246.7 146.892 246.239 146.892C245.019 146.892 240.682 148.49 237.862 149.978C236.371 150.79 233.742 152.171 232.034 153.091C230.326 154.012 228.32 154.959 227.615 155.23C226.856 155.501 225.609 156.286 224.687 157.125C223.223 158.451 223.088 158.532 223.088 157.937C223.088 156.935 222.41 156.231 220.865 155.555C220.079 155.23 219.401 154.905 219.347 154.878C219.293 154.824 219.564 154.499 219.943 154.12C220.323 153.714 220.648 153.146 220.648 152.794C220.648 151.792 219.238 149.275 218.344 148.733C217.286 148.084 217.042 148.111 216.066 148.95C215.036 149.816 214.982 150.736 215.904 151.224C216.798 151.684 216.771 151.873 215.687 152.685C213.627 154.255 210.319 155.04 208.53 154.391C207.988 154.201 207.798 154.337 207.066 155.501C206.253 156.827 206.226 156.827 205.25 156.61C204.708 156.475 204.165 156.367 204.057 156.367C203.922 156.367 203.84 155.934 203.84 155.419C203.84 154.499 203.813 154.499 202.024 153.958C200.994 153.66 199.53 153.281 198.771 153.118C197.985 152.929 197.334 152.712 197.334 152.631C197.361 152.523 197.524 152.144 197.741 151.765C197.957 151.386 198.12 150.628 198.147 150.06C198.147 149.058 198.093 149.004 196.466 148.246C195.518 147.786 194.596 147.434 194.406 147.434C194.189 147.434 194.813 146.595 195.762 145.566C197.551 143.617 199.747 140.206 200.506 138.149C200.912 137.039 201.129 136.877 203.19 135.848C206.172 134.359 205.955 133.791 202.214 133.087C201.4 132.925 200.641 132.708 200.506 132.573C200.37 132.437 200.614 131.382 201.129 130.055C201.943 127.998 202.539 124.425 202.105 124.425C201.455 124.425 199.123 125.941 198.744 126.617C198.337 127.321 198.147 127.402 196.927 127.402C196.195 127.402 194.786 127.484 193.81 127.565L192.048 127.754L190.692 129.622C189.96 130.624 189.31 131.652 189.255 131.869C189.093 132.546 189.96 132.627 190.909 132.031C192.156 131.273 193.837 131.057 195.301 131.463C195.978 131.652 196.521 131.896 196.521 132.004C196.521 132.383 194.054 133.385 192.752 133.547C191.993 133.628 190.801 133.52 189.77 133.249C188.822 133.006 187.981 132.87 187.9 132.952C187.819 133.033 187.737 135.577 187.737 138.582C187.71 143.807 187.737 144.104 188.334 145.025C188.849 145.864 188.93 146.378 188.93 148.463C188.93 151.115 189.445 153.037 190.665 154.824C191.234 155.663 191.261 155.825 190.936 156.61C190.502 157.639 189.418 158.235 188.822 157.747C188.225 157.26 187.846 157.612 187.846 158.641C187.846 159.128 187.71 159.913 187.547 160.4C187.276 161.131 187.141 161.239 186.219 161.239C185.297 161.239 185.026 161.077 183.806 159.696L182.451 158.18L180.906 159.372C180.065 160.021 179.252 160.752 179.089 160.996C178.872 161.348 178.628 161.375 177.842 161.212C175.755 160.698 170.821 161.672 169.059 162.918C168.218 163.513 168.218 163.405 168.761 166.789C168.869 167.655 168.788 168.034 168.327 168.629C167.785 169.306 167.568 169.387 166.321 169.306L164.938 169.225L164.667 166.816L164.396 164.434L163.501 165.868C163.013 166.68 162.01 168.359 161.251 169.631C159.543 172.5 158.703 173.394 155.992 175.18C153.661 176.696 152.332 177.833 152.332 178.293C152.332 178.428 152.143 178.564 151.926 178.564C151.438 178.564 145.067 181.162 144.579 181.569C144.335 181.758 144.064 181.758 143.739 181.596C143.142 181.271 138.751 181.596 137.639 182.029C136.826 182.354 136.419 183.057 135.253 186.035C133.979 189.338 132.895 190.393 129.913 191.287C128.991 191.557 128.612 191.557 127.934 191.287C126.795 190.826 126.226 191.151 124.681 193.181C123.325 195.022 122.702 195.185 120.94 194.291C119.638 193.614 119.178 192.829 119.123 191.151C119.069 190.42 119.042 189.771 119.015 189.744C119.015 189.716 118.391 189.879 117.632 190.095C116.358 190.474 116.223 190.474 115.247 189.906C114.027 189.202 113.593 189.31 112.617 190.556C111.723 191.774 111.614 193.804 112.427 195.185C112.888 195.97 112.915 196.267 112.698 197.458C112.536 198.216 112.183 199.083 111.885 199.407C111.37 199.949 111.153 199.976 108.713 199.813C107.277 199.705 105.921 199.597 105.704 199.516C105.487 199.462 104.972 198.866 104.566 198.189L103.834 196.971L97.3817 197.106L90.9296 197.242L90.1706 198.108C89.7639 198.595 89.4386 199.137 89.4386 199.326C89.4386 199.516 89.9537 199.922 90.5772 200.247L91.7429 200.842L90.5501 201.356C89.8995 201.627 89.0862 201.925 88.7338 202.006C88.3814 202.087 88.0831 202.277 88.0831 202.439C88.0831 203.008 88.9235 204.253 89.9537 205.173C91.0381 206.148 91.0923 206.175 92.6646 206.012C94.0743 205.85 94.3996 205.931 95.6738 206.608C97.4088 207.555 98.9269 209.369 100.201 212.022C100.933 213.565 101.34 214.052 102.126 214.458C102.668 214.756 103.183 214.999 103.237 215.026C103.292 215.081 103.02 215.595 102.614 216.19C102.234 216.786 101.909 217.327 101.909 217.436C101.909 217.544 102.288 218.356 102.722 219.276C103.346 220.549 103.644 221.686 103.969 224.176C104.186 225.963 104.566 228.128 104.783 228.967C105.162 230.483 105.162 230.51 104.457 231.539C103.563 232.865 101.502 237.196 99.9842 240.959C98.8727 243.747 98.6558 244.072 96.6226 246.102C94.8334 247.889 91.1465 250.948 89.8181 251.733C89.6555 251.841 88.6524 251.625 87.6223 251.273C86.565 250.921 83.9625 250.244 81.8209 249.757C74.2303 248.078 72.8206 247.645 69.0795 245.859C65.3655 244.072 63.1154 243.368 61.8684 243.612C61.4889 243.693 60.6756 243.531 60.0521 243.26C59.4556 242.989 57.8833 242.583 56.5821 242.34C54.0609 241.907 53.2205 241.555 51.2144 240.12C50.3198 239.497 49.6421 239.2 48.9643 239.2C47.5817 239.2 47.2293 239.389 46.3347 240.688L45.5485 241.825L43.1087 241.988C39.476 242.204 38.229 242.989 37.4157 245.507C37.0904 246.427 37.1446 246.617 37.7681 247.754C38.1477 248.457 38.473 249.188 38.473 249.432C38.473 249.648 37.8766 250.542 37.1446 251.354C36.4398 252.193 35.7621 253.113 35.6536 253.438C35.491 253.952 34.4608 254.792 29.8793 258.121C28.7949 258.906 27.9003 259.664 27.9003 259.772C27.9003 259.908 28.1443 260.449 28.4696 260.991C29.2558 262.317 28.9847 263.048 27.1413 264.455C24.6743 266.377 24.0508 267.162 23.9153 268.543C23.7797 269.734 23.5357 270.005 16.6228 277.016C12.692 280.995 9.46596 284.352 9.46596 284.487C9.46596 284.622 9.65572 285.461 9.89971 286.382C10.3877 288.304 11.0654 289.684 12.0685 290.875C12.7733 291.742 12.8004 291.769 12.3667 292.662C12.1227 293.176 11.2552 294.07 10.4148 294.692C8.81533 295.883 8.57135 296.506 9.35752 297.616C10.1708 298.807 9.65572 299.917 7.10744 302.569C5.69775 304.031 4.85736 305.087 5.02002 305.249C5.15557 305.358 8.24604 305.98 11.9058 306.603L18.5205 307.713L19.9031 309.012C20.635 309.716 22.2887 311.015 23.5628 311.881C27.6021 314.724 29.4185 316.97 29.9606 319.948C30.3673 322.195 32.3463 322.438 39.4218 321.112C45.8467 319.867 49.6421 319.65 54.0338 320.246C56.5007 320.571 57.3953 320.787 57.8562 321.22C58.6153 321.924 59.1303 321.897 60.0792 321.112C60.6485 320.652 61.2991 320.462 62.763 320.327C64.254 320.219 65.7179 319.786 68.971 318.513C71.3296 317.593 74.3116 316.591 75.5857 316.294C76.8599 315.996 78.3238 315.563 78.8117 315.319C79.6521 314.913 79.6792 314.859 79.5166 313.776L79.3539 312.639L81.2245 311.475C82.2275 310.826 84.586 309.499 86.4295 308.552C89.3031 307.036 89.8181 306.657 90.1706 305.872C90.8754 304.139 90.9025 302.569 90.2519 300.377C89.3573 297.399 89.4386 295.585 90.5501 293.718C91.7158 291.796 94.4539 289.197 98.6016 286.057C100.418 284.703 102.668 282.863 103.59 281.997C105.758 279.993 106.518 279.614 109.093 279.29C110.909 279.073 111.831 278.721 115.843 276.772L120.479 274.525H123.19C124.681 274.525 126.063 274.417 126.226 274.309C126.416 274.201 126.741 273.524 126.931 272.82C127.283 271.656 127.392 271.548 128.341 271.385C129.588 271.169 130.103 270.546 130.103 269.22C130.103 268.489 129.967 268.191 129.615 268.083C129.018 267.947 128.747 266.865 128.747 264.618C128.747 261.559 130.401 258.663 132.868 257.363L134.034 256.741L137.151 258.148C142.031 260.341 141.977 260.314 143.82 259.881C144.688 259.691 145.582 259.502 145.745 259.502C145.935 259.502 146.775 260.124 147.615 260.882C148.456 261.64 149.567 262.425 150.055 262.642C151.275 263.156 155.64 263.156 156.616 262.642C157.022 262.425 159.11 260.395 161.251 258.148C164.721 254.494 165.236 254.061 165.887 254.169C166.809 254.359 168.869 253.519 172.122 251.597C173.532 250.785 175.213 249.838 175.836 249.54L176.948 248.945L178.439 249.621C179.252 250 180.526 250.461 181.231 250.623C182.532 250.948 182.614 251.029 184.674 254.115C187.141 257.769 187.547 258.798 187.764 261.884C188.035 265.538 189.093 266.756 196.521 271.683C199.855 273.903 201.238 275.013 203.271 277.151C206.605 280.643 207.663 281.266 210.075 281.212C211.675 281.184 212.081 281.293 213.139 281.969C214.142 282.592 214.548 283.106 215.362 284.812C216.283 286.734 216.446 286.923 217.747 287.519C218.533 287.898 220.133 288.331 221.326 288.547L223.494 288.899L223.576 289.847C223.657 291.173 224.498 293.934 224.823 294.015C224.985 294.07 225.826 294.232 226.666 294.394C227.805 294.638 228.51 294.99 229.431 295.829C231.438 297.562 232.413 299.592 234.067 305.466C234.88 308.308 234.908 308.254 232.847 309.201C231.98 309.58 231.844 309.824 231.519 311.177C231.329 312.017 230.841 313.478 230.462 314.426C229.811 316.104 229.784 316.158 230.272 316.51C231.383 317.322 233.01 316.835 234.392 315.265C235.043 314.561 236.29 311.584 237.049 308.985C237.537 307.307 238.296 306.467 240.275 305.466C242.281 304.464 242.39 304.302 242.2 302.163C241.956 299.267 241.875 299.023 241.143 299.023C240.655 299.023 238.459 297.778 236.832 296.56C236.317 296.181 238.757 290.929 240.357 289.035L241.143 288.141L242.851 288.574C243.799 288.818 245.318 289.414 246.239 289.901C247.812 290.713 250.875 293.42 251.526 294.557C251.824 295.098 251.824 295.098 252.23 294.584C252.881 293.745 253.017 291.958 252.501 290.686C251.553 288.358 249.926 287.302 240.98 283.188C236.426 281.103 231.492 278.423 231.492 278.071C231.492 277.909 232.034 277.097 232.712 276.285C233.389 275.473 233.932 274.715 233.932 274.634C233.932 274.201 231.519 273.849 228.591 273.849C226.043 273.849 225.013 273.74 223.766 273.307C218.832 271.602 215.714 267.758 214.847 262.29C214.223 258.473 213.518 257.444 209.126 254.142C207.635 253.005 206.063 251.706 205.629 251.246C204.03 249.54 203.732 247.754 204.681 245.48C205.223 244.153 205.25 244.045 204.816 242.989C204.22 241.501 204.247 239.145 204.87 238.604C205.114 238.36 206.931 237.251 208.91 236.114L212.488 234.083L213.708 234.598C214.359 234.896 215.226 235.166 215.606 235.193C215.985 235.22 216.31 235.329 216.31 235.41C216.31 235.491 215.904 236.276 215.416 237.169L214.548 238.794L215.307 240.282C215.714 241.094 216.175 242.286 216.31 242.908C216.527 243.72 216.717 244.018 216.988 243.91C217.53 243.693 219.021 241.392 219.021 240.77C219.021 240.472 219.401 239.849 219.862 239.389L220.729 238.55L221.434 239.47C222.139 240.418 222.79 241.04 224.308 242.286C225.094 242.935 225.121 243.016 225.121 245.344C225.121 246.644 225.257 247.943 225.392 248.187C225.555 248.43 226.233 249.053 226.937 249.594C227.751 250.217 228.266 250.839 228.374 251.381C228.591 252.382 229.811 253.411 231.817 254.304C233.2 254.873 233.416 255.089 233.688 256.01L234.013 257.038H235.558C238.513 257.011 240.817 258.121 244.233 261.153C245.697 262.452 246.456 262.94 247.432 263.183C249.519 263.643 253.64 266.026 255.592 267.866C256.568 268.787 256.676 268.787 258.71 268.272C259.333 268.137 259.414 268.191 259.414 268.814C259.414 269.328 259.577 269.545 260.065 269.68C260.689 269.815 260.716 269.896 260.58 271.9C260.445 273.876 260.499 274.146 261.692 277.205L262.966 280.399L262.017 282.213L261.095 284.027L261.556 285.38C262.18 287.248 263.671 289.197 265.866 290.984C268.74 293.339 269.364 294.124 269.553 295.558C269.689 296.533 269.96 296.993 270.583 297.534C271.939 298.671 273.484 299.321 275.897 299.835L278.174 300.268L277.442 300.756C277.035 301.026 276.548 301.649 276.331 302.163C275.978 302.975 275.978 303.192 276.358 303.896C276.846 304.843 278.174 305.872 279.448 306.305C280.722 306.711 284.68 306.684 288.557 306.197C292.867 305.655 294.657 305.655 294.657 306.197C294.657 307.063 293.843 308.173 293.003 308.471C291.783 308.904 290.726 308.85 287.554 308.227C283.948 307.523 281.265 307.523 280.018 308.2C278.798 308.85 277.849 310.609 277.849 312.287C277.849 314.209 278.499 314.832 281.265 315.671C282.756 316.131 283.65 316.564 283.813 316.916C283.975 317.187 284.165 318.919 284.219 320.733C284.355 323.602 284.436 324.117 284.924 324.631C285.656 325.416 286.822 325.876 287.771 325.768C288.693 325.66 289.777 324.225 289.777 323.088C289.777 322.655 289.858 322.303 289.994 322.303C290.102 322.303 291.024 323.467 292.054 324.875C293.084 326.282 294.006 327.446 294.142 327.446C294.575 327.446 295.145 326.228 295.307 324.902C295.389 324.171 295.524 323.494 295.605 323.44C295.687 323.359 296.581 324.117 297.612 325.091C298.777 326.228 299.699 326.905 300.078 326.905C300.675 326.905 300.675 326.824 300.566 324.766C300.431 322.222 299.807 321.085 297.801 319.596C295.28 317.728 295.443 317.972 295.633 316.456L295.822 315.048L298.343 316.267C301.949 317.999 303.874 317.945 303.874 316.05C303.874 315.103 303.06 314.534 300.431 313.533L298.452 312.775V310.771V308.741L299.211 309.147C299.645 309.364 300.566 309.689 301.298 309.878C302.112 310.068 303.196 310.69 304.226 311.529C306.151 313.072 306.937 313.343 307.913 312.802C309.052 312.152 308.916 311.611 307.154 309.77C306.232 308.822 305.5 307.848 305.5 307.604C305.5 306.738 303.359 305.087 300.051 303.327C296.039 301.216 294.304 299.673 293.057 297.047C292.108 295.017 291.729 293.609 292.135 293.609C292.271 293.609 293.301 293.907 294.385 294.286C296.771 295.098 297.259 295.125 297.612 294.449C298.045 293.664 297.205 292.797 294.169 290.957C292.705 290.063 290.997 288.764 290.373 288.087C289.099 286.707 289.045 286.301 289.506 282.917C289.885 280.291 289.994 280.075 290.726 280.075C291.566 280.075 292.569 281.374 294.548 285.028C296.744 289.116 298.371 290.415 299.374 288.953C299.916 288.168 299.916 286.734 299.401 286.301C298.723 285.759 297.855 284.406 298.127 284.406C298.289 284.406 299.211 285.137 300.187 286.03C302.057 287.708 302.6 287.925 303.467 287.275C304.036 286.869 304.172 287.086 301.027 283.431C299.563 281.699 300.458 281.726 303.359 283.512C305.338 284.731 305.88 284.947 306.07 284.649C306.639 283.729 306.205 282.809 304.335 281.076C303.467 280.291 303.277 280.02 303.82 280.372C305.039 281.239 305.473 280.887 306.259 278.559C306.612 277.53 307.154 276.42 307.452 276.095C308.076 275.419 310.895 274.39 312.061 274.39C312.495 274.39 313.823 274.119 315.07 273.822C316.778 273.361 317.754 273.28 319.435 273.388C320.709 273.47 321.82 273.415 322.2 273.253C322.552 273.091 322.932 273.009 323.013 273.091C323.094 273.199 322.715 274.255 322.2 275.473C321.251 277.611 321.007 278.721 321.441 278.721C321.983 278.721 326.591 275.635 327.54 274.634C328.354 273.794 328.57 273.388 328.489 272.766C328.435 272.062 328.598 271.845 329.899 271.006C332.339 269.463 333.531 269.003 337.652 267.866C342.288 266.621 342.938 266.323 343.372 265.186L343.697 264.347L340.526 262.831C337.245 261.261 336.107 260.395 331.281 255.793L329.221 253.817L330.116 252.193C330.929 250.677 331.01 250.325 331.092 247.781C331.146 245.886 331.417 244.072 331.932 241.988L332.691 238.956L332.122 234.544C331.796 231.918 331.661 230.077 331.824 229.969C331.959 229.888 333.342 228.561 334.914 227.045L337.733 224.257L337.354 223.391C335.971 220.224 335.05 218.004 335.104 217.95C335.158 217.896 335.836 218.004 336.622 218.167C337.516 218.356 338.113 218.356 338.276 218.194C338.411 218.058 338.682 216.84 338.926 215.487C339.658 211.047 341.42 208.286 344.402 206.933C345.514 206.418 346.219 206.31 348.496 206.31H351.261L351.424 200.084C351.505 196.646 351.668 190.15 351.749 185.656L351.912 177.427L351.207 177.887C350.204 178.537 347.439 178.32 343.725 177.264C338.547 175.83 337.516 175.722 335.348 176.371C332.989 177.075 332.881 177.075 331.281 176.263C330.549 175.911 329.411 175.478 328.76 175.315L327.54 174.991L327.811 173.502C328.055 172.067 328.055 172.013 327.215 171.147C326.646 170.578 326.158 169.604 325.805 168.467C325.29 166.734 324.829 166.166 322.85 164.758C322.362 164.406 322.254 163.973 322.118 161.564L321.956 158.749L323.691 159.886C324.64 160.508 325.534 161.104 325.697 161.266C326.158 161.7 326.835 161.537 327.296 160.833C327.567 160.454 328.055 160.021 328.435 159.886C329.872 159.344 328.896 156.421 326.7 154.689C325.995 154.12 324.667 153.118 323.772 152.469C322.85 151.819 321.739 150.818 321.332 150.249L320.546 149.22L320.627 145.106L320.709 140.991L319.868 140.044C318.865 138.88 317.645 138.176 313.986 136.633C312.332 135.929 310.732 135.036 310.028 134.413C308.672 133.222 302.708 126.699 301.759 125.372L301.136 124.506L301.705 122.774C303.684 116.899 302.085 114.734 295.172 113.922C294.06 113.786 292.623 113.407 292 113.083L290.834 112.487L292.434 111.215C294.169 109.834 295.226 108.562 295.036 108.075C294.982 107.912 294.521 107.533 294.06 107.236C293.599 106.938 292.922 106.505 292.569 106.288C291.783 105.774 291.783 105.341 292.596 104.583C292.949 104.258 293.301 103.689 293.41 103.311C293.518 102.932 293.789 102.174 294.033 101.605C294.467 100.631 294.44 100.549 293.952 100.062C293.491 99.602 290.617 98.9252 289.506 99.0065C289.289 99.0335 288.177 99.1689 287.012 99.2771Z" fill="#111111"/>
</g>
<g filter="url(#filter3_d_217_571)">
<path d="M117.504 107.48C116.826 107.697 115.958 108.211 115.579 108.617C114.82 109.429 113.979 111.351 113.979 112.271C113.979 112.813 114.061 112.84 115.742 112.677C117.666 112.488 119.7 111.73 120.676 110.81C121.353 110.16 121.706 108.779 121.462 107.751C121.299 107.155 121.163 107.074 119.998 107.101C119.293 107.101 118.181 107.291 117.504 107.48Z" fill="#111111"/>
</g>
<g filter="url(#filter4_d_217_571)">
<path d="M126.043 109.97C124.688 110.133 122.98 111.405 119.239 115.087L116.447 117.821L115.579 116.927C114.413 115.736 113.193 115.33 111.946 115.736C111.431 115.899 110.998 116.142 110.998 116.278C110.998 116.413 111.486 117.415 112.109 118.552C112.841 119.905 113.519 120.771 114.142 121.15C114.657 121.475 115.064 121.773 115.064 121.8C115.064 121.827 113.925 122.45 112.516 123.153C109.507 124.669 107.609 126.375 107.175 127.972C106.769 129.569 106.958 129.812 108.639 129.812C111.242 129.812 112.624 130.11 112.624 130.652C112.624 130.895 111.675 132.574 110.51 134.333C109.344 136.093 108.314 137.663 108.205 137.852C108.043 138.096 108.205 138.096 108.883 137.879C111.73 136.959 112.895 136.742 113.193 137.04C113.627 137.473 112.868 138.718 111.567 139.693C110.428 140.532 110.211 141.073 110.808 141.777C111.892 143.104 113.383 143.374 116.284 142.698C118.642 142.129 119.537 142.102 120.052 142.508C120.865 143.185 120.486 144.728 119.049 146.65L118.48 147.408L119.076 149.086C120.106 152.009 119.862 152.876 117.395 155.204C115.606 156.909 115.471 156.909 111.974 155.231C110.645 154.581 109.561 154.229 109.29 154.337C108.72 154.554 108.693 155.853 109.208 157.369L109.615 158.479L108.476 158.56C106.796 158.669 106.823 159.372 108.531 160.428C110.049 161.348 110.184 161.727 109.371 163.027C108.585 164.326 107.121 165.138 103.949 166.086C102.404 166.546 101.048 167.006 100.94 167.114C100.533 167.574 99.5575 170.444 99.693 170.769C99.8015 171.066 100.859 171.175 103.949 171.31L108.07 171.472L108.802 172.339C109.48 173.151 109.642 173.205 111.35 173.232C112.353 173.259 113.166 173.34 113.166 173.421C113.166 173.719 111.35 175.235 110.483 175.668C109.805 176.047 109.507 176.02 107.311 175.425C105.982 175.046 104.708 174.802 104.464 174.883C103.976 175.046 101.916 177.157 101.238 178.213C100.913 178.673 99.5033 179.269 95.0573 180.73C89.3101 182.652 89.283 182.652 89.771 183.194C91.0722 184.655 93.8374 184.872 98.4731 183.816C100.127 183.437 101.862 183.139 102.323 183.139C102.946 183.139 103.217 183.302 103.461 183.816C103.624 184.195 103.868 184.493 104.003 184.493C104.112 184.493 104.817 184.06 105.549 183.545C108.205 181.624 109.534 181.434 111.296 182.76C112.462 183.6 113.275 183.573 116.42 182.598C117.802 182.138 119.049 181.786 119.185 181.786C119.293 181.786 119.754 182.327 120.215 183.004C121.353 184.655 122.736 185.684 123.549 185.467C124.308 185.278 124.823 184.276 124.823 182.977C124.823 182.192 124.905 182.057 125.311 182.165C127.914 182.95 130.787 183.058 133.607 182.463C136.182 181.921 139.734 179.891 139.734 178.944C139.734 178.375 138.785 177.753 137.158 177.184C136.264 176.886 135.45 176.534 135.315 176.399C135.179 176.264 135.667 175.749 136.399 175.208C137.131 174.694 137.944 173.99 138.215 173.692C138.514 173.367 139.002 173.124 139.3 173.124C140.737 173.124 144.64 170.687 145.969 168.982C146.484 168.332 146.538 168.143 146.24 167.439C145.779 166.329 144.044 164.813 142.797 164.489C142.228 164.326 140.466 164.191 138.866 164.191C137.158 164.191 135.938 164.082 135.938 163.92C135.938 163.785 136.562 162.106 137.321 160.212C139.734 154.31 139.517 151.982 136.318 149.059L134.556 147.435L134.718 146.244C134.935 144.809 134.664 144.538 133.363 144.971C132.414 145.296 131.33 144.998 131.33 144.43C131.33 144.268 131.818 143.022 132.387 141.642C133.688 138.583 133.932 137.392 133.498 136.282C133.146 135.47 132.007 134.685 131.194 134.685C130.923 134.685 130.408 134.441 129.974 134.144C129.568 133.846 128.917 133.494 128.51 133.331C127.805 133.088 127.805 133.061 128.185 132.113C128.917 130.381 130.164 128.919 134.149 124.994C137.917 121.286 138.649 120.311 138.27 119.391C137.89 118.362 134.474 118.173 129.432 118.849C127.86 119.066 126.477 119.255 126.314 119.255C125.718 119.255 128.998 116.305 132.333 113.814C134.285 112.353 135.965 111.026 136.047 110.918C136.101 110.81 136.074 110.539 135.938 110.322C135.748 109.998 134.827 109.916 131.411 109.889C129.052 109.862 126.64 109.916 126.043 109.97Z" fill="#111111"/>
</g>
<g filter="url(#filter5_d_217_571)">
<path d="M96.9548 135.389C95.1655 135.849 94.2167 136.336 93.4034 137.229C92.9697 137.69 92.4546 137.933 91.8853 137.933C90.8009 137.933 89.8792 138.8 90.3672 139.395C90.5298 139.612 91.0991 139.855 91.6142 139.936C92.4275 140.099 92.563 140.234 92.563 140.884C92.563 141.506 92.3733 141.723 91.4516 142.129C90.5569 142.535 90.2587 142.562 89.9063 142.319C87.9816 140.911 84.4031 140.261 82.4241 140.911C81.15 141.317 79.5505 142.698 79.5505 143.347C79.5505 143.645 79.7945 144.024 80.0656 144.213C80.3638 144.43 80.7434 144.917 80.9331 145.323C81.3669 146.298 80.9602 146.731 79.1981 147.137C76.9752 147.624 76.8396 147.705 76.8396 148.057C76.8396 148.626 77.8969 149.817 78.7915 150.277C79.2523 150.521 80.4723 150.845 81.5566 151.035L83.4814 151.36L81.9633 151.874C80.1469 152.443 79.2252 152.28 78.7915 151.306C78.3306 150.358 77.8698 150.602 77.3276 152.118C77.0836 152.849 76.8125 153.471 76.7312 153.552C76.6498 153.634 76.0263 153.498 75.3215 153.255C74.6166 153.011 73.8034 152.822 73.5323 152.822C72.8003 152.822 71.9599 153.796 71.9599 154.662C71.9599 155.258 72.1497 155.528 72.8274 155.826L73.6949 156.232L72.0141 156.611C71.0924 156.801 70.1978 157.126 70.0352 157.315C69.7098 157.694 70.008 158.452 70.7129 159.048C71.3364 159.562 71.2551 159.914 70.1707 161.159C69.6556 161.782 69.249 162.485 69.3032 162.729C69.3574 163 70.496 163.649 72.0955 164.38L74.8064 165.571L78.0595 165.274C82.9121 164.84 87.5749 164.218 89.7166 163.731C93.6745 162.837 97.5783 160.888 99.3404 158.885C101.157 156.801 102.485 153.065 102.268 150.71L102.133 149.438L104.735 147.678L107.338 145.919L107.365 142.806C107.392 140.424 107.311 139.422 106.931 138.475C106.307 136.905 105.874 136.634 104.627 137.094C103.976 137.311 103.542 137.338 103.325 137.175C103.136 137.013 102.404 136.742 101.672 136.553C100.533 136.282 100.398 136.174 100.506 135.605C100.615 135.01 100.533 134.956 99.503 134.983C98.9066 134.983 97.7409 135.172 96.9548 135.389Z" fill="#111111"/>
</g>
<g filter="url(#filter6_d_217_571)">
<path d="M176.196 265.053C172.048 268.436 171.56 268.978 171.018 271.17C170.72 272.307 170.503 274.094 170.503 275.339C170.503 277.234 170.611 277.667 171.208 278.587C172.075 279.887 174.434 281.267 175.383 281.024C176.277 280.807 178.066 278.371 178.934 276.259C180.317 272.849 180.777 268.166 180.018 265.594C179.639 264.403 178.907 263.239 178.527 263.293C178.446 263.293 177.389 264.078 176.196 265.053Z" fill="#111111"/>
</g>
<g filter="url(#filter7_d_217_571)">
<path d="M174.162 283.703C173.485 284.245 171.777 285.327 170.34 286.14C166.897 288.089 166.734 288.413 166.789 293.8C166.816 297.076 166.707 298.158 166.138 300.703C165.379 304.032 165.162 306.902 165.677 307.416C165.921 307.66 166.328 307.633 167.439 307.389C168.551 307.118 169.201 306.712 170.421 305.575C171.994 304.06 172.59 303.897 173.349 304.818C173.539 305.034 173.783 305.224 173.918 305.224C174.217 305.224 175.166 303.302 176.304 300.432L177.199 298.213L176.467 296.318C175.572 294.098 175.681 293.313 176.982 292.528C178.093 291.824 178.337 290.579 177.931 287.764C177.66 285.706 176.44 282.918 175.789 282.837C175.572 282.783 174.84 283.189 174.162 283.703Z" fill="#111111"/>
</g>
<g filter="url(#filter8_d_217_571)">
<path d="M223.692 314.996C222.851 315.104 220.384 315.726 218.215 316.349C213.39 317.73 211.357 317.757 208.781 316.484L207.209 315.726L205.393 316.268C204.39 316.566 202.871 316.945 202.031 317.134C199.754 317.594 198.805 318.325 198.154 320.166C197.531 322.007 197.694 322.44 199.591 323.983C201.57 325.553 205.04 327.231 211.628 329.748C214.962 331.021 218.703 332.509 219.95 333.051L222.228 334.025L222.878 333.213C224.288 331.508 224.451 330.967 224.315 328.233C224.071 322.467 224.125 321.113 224.749 320.247C225.508 319.164 225.914 317.838 225.996 316.187C226.077 314.644 226.077 314.644 223.692 314.996Z" fill="#111111"/>
</g>
</g>
<defs>
<filter id="filter0_d_217_571" x="155.67" y="-15.7" width="172.364" height="182.099" filterUnits="userSpaceOnUse" color-interpolation-filters="sRGB">
<feFlood flood-opacity="0" result="BackgroundImageFix"/>
<feColorMatrix in="SourceAlpha" type="matrix" values="0 0 0 0 0 0 0 0 0 0 0 0 0 0 0 0 0 0 127 0" result="hardAlpha"/>
<feOffset/>
<feGaussianBlur stdDeviation="11.35"/>
<feComposite in2="hardAlpha" operator="out"/>
<feColorMatrix type="matrix" values="0 0 0 0 0.231373 0 0 0 0 0.576471 0 0 0 0 0.552941 0 0 0 1 0"/>
<feBlend mode="normal" in2="BackgroundImageFix" result="effect1_dropShadow_217_571"/>
<feBlend mode="normal" in="SourceGraphic" in2="effect1_dropShadow_217_571" result="shape"/>
</filter>
<filter id="filter1_d_217_571" x="51.7814" y="5.33613" width="87.3614" height="74.0426" filterUnits="userSpaceOnUse" color-interpolation-filters="sRGB">
<feFlood flood-opacity="0" result="BackgroundImageFix"/>
<feColorMatrix in="SourceAlpha" type="matrix" values="0 0 0 0 0 0 0 0 0 0 0 0 0 0 0 0 0 0 127 0" result="hardAlpha"/>
<feOffset/>
<feGaussianBlur stdDeviation="11.35"/>
<feComposite in2="hardAlpha" operator="out"/>
<feColorMatrix type="matrix" values="0 0 0 0 0.231373 0 0 0 0 0.576471 0 0 0 0 0.552941 0 0 0 1 0"/>
<feBlend mode="normal" in2="BackgroundImageFix" result="effect1_dropShadow_217_571"/>
<feBlend mode="normal" in="SourceGraphic" in2="effect1_dropShadow_217_571" result="shape"/>
</filter>
<filter id="filter2_d_217_571" x="-17.7" y="76.3" width="392.312" height="273.846" filterUnits="userSpaceOnUse" color-interpolation-filters="sRGB">
<feFlood flood-opacity="0" result="BackgroundImageFix"/>
<feColorMatrix in="SourceAlpha" type="matrix" values="0 0 0 0 0 0 0 0 0 0 0 0 0 0 0 0 0 0 127 0" result="hardAlpha"/>
<feOffset/>
<feGaussianBlur stdDeviation="11.35"/>
<feComposite in2="hardAlpha" operator="out"/>
<feColorMatrix type="matrix" values="0 0 0 0 0.231373 0 0 0 0 0.576471 0 0 0 0 0.552941 0 0 0 1 0"/>
<feBlend mode="normal" in2="BackgroundImageFix" result="effect1_dropShadow_217_571"/>
<feBlend mode="normal" in="SourceGraphic" in2="effect1_dropShadow_217_571" result="shape"/>
</filter>
<filter id="filter3_d_217_571" x="91.2795" y="84.3967" width="52.9596" height="51.068" filterUnits="userSpaceOnUse" color-interpolation-filters="sRGB">
<feFlood flood-opacity="0" result="BackgroundImageFix"/>
<feColorMatrix in="SourceAlpha" type="matrix" values="0 0 0 0 0 0 0 0 0 0 0 0 0 0 0 0 0 0 127 0" result="hardAlpha"/>
<feOffset/>
<feGaussianBlur stdDeviation="11.35"/>
<feComposite in2="hardAlpha" operator="out"/>
<feColorMatrix type="matrix" values="0 0 0 0 0.231373 0 0 0 0 0.576471 0 0 0 0 0.552941 0 0 0 1 0"/>
<feBlend mode="normal" in2="BackgroundImageFix" result="effect1_dropShadow_217_571"/>
<feBlend mode="normal" in="SourceGraphic" in2="effect1_dropShadow_217_571" result="shape"/>
</filter>
<filter id="filter4_d_217_571" x="66.8791" y="87.1818" width="102.242" height="121.014" filterUnits="userSpaceOnUse" color-interpolation-filters="sRGB">
<feFlood flood-opacity="0" result="BackgroundImageFix"/>
<feColorMatrix in="SourceAlpha" type="matrix" values="0 0 0 0 0 0 0 0 0 0 0 0 0 0 0 0 0 0 127 0" result="hardAlpha"/>
<feOffset/>
<feGaussianBlur stdDeviation="11.35"/>
<feComposite in2="hardAlpha" operator="out"/>
<feColorMatrix type="matrix" values="0 0 0 0 0.231373 0 0 0 0 0.576471 0 0 0 0 0.552941 0 0 0 1 0"/>
<feBlend mode="normal" in2="BackgroundImageFix" result="effect1_dropShadow_217_571"/>
<feBlend mode="normal" in="SourceGraphic" in2="effect1_dropShadow_217_571" result="shape"/>
</filter>
<filter id="filter5_d_217_571" x="46.5983" y="112.278" width="83.4713" height="75.9938" filterUnits="userSpaceOnUse" color-interpolation-filters="sRGB">
<feFlood flood-opacity="0" result="BackgroundImageFix"/>
<feColorMatrix in="SourceAlpha" type="matrix" values="0 0 0 0 0 0 0 0 0 0 0 0 0 0 0 0 0 0 127 0" result="hardAlpha"/>
<feOffset/>
<feGaussianBlur stdDeviation="11.35"/>
<feComposite in2="hardAlpha" operator="out"/>
<feColorMatrix type="matrix" values="0 0 0 0 0.231373 0 0 0 0 0.576471 0 0 0 0 0.552941 0 0 0 1 0"/>
<feBlend mode="normal" in2="BackgroundImageFix" result="effect1_dropShadow_217_571"/>
<feBlend mode="normal" in="SourceGraphic" in2="effect1_dropShadow_217_571" result="shape"/>
</filter>
<filter id="filter6_d_217_571" x="147.803" y="240.591" width="55.2794" height="63.1607" filterUnits="userSpaceOnUse" color-interpolation-filters="sRGB">
<feFlood flood-opacity="0" result="BackgroundImageFix"/>
<feColorMatrix in="SourceAlpha" type="matrix" values="0 0 0 0 0 0 0 0 0 0 0 0 0 0 0 0 0 0 127 0" result="hardAlpha"/>
<feOffset/>
<feGaussianBlur stdDeviation="11.35"/>
<feComposite in2="hardAlpha" operator="out"/>
<feColorMatrix type="matrix" values="0 0 0 0 0.231373 0 0 0 0 0.576471 0 0 0 0 0.552941 0 0 0 1 0"/>
<feBlend mode="normal" in2="BackgroundImageFix" result="effect1_dropShadow_217_571"/>
<feBlend mode="normal" in="SourceGraphic" in2="effect1_dropShadow_217_571" result="shape"/>
</filter>
<filter id="filter7_d_217_571" x="142.696" y="260.132" width="58.1188" height="70.1539" filterUnits="userSpaceOnUse" color-interpolation-filters="sRGB">
<feFlood flood-opacity="0" result="BackgroundImageFix"/>
<feColorMatrix in="SourceAlpha" type="matrix" values="0 0 0 0 0 0 0 0 0 0 0 0 0 0 0 0 0 0 127 0" result="hardAlpha"/>
<feOffset/>
<feGaussianBlur stdDeviation="11.35"/>
<feComposite in2="hardAlpha" operator="out"/>
<feColorMatrix type="matrix" values="0 0 0 0 0.231373 0 0 0 0 0.576471 0 0 0 0 0.552941 0 0 0 1 0"/>
<feBlend mode="normal" in2="BackgroundImageFix" result="effect1_dropShadow_217_571"/>
<feBlend mode="normal" in="SourceGraphic" in2="effect1_dropShadow_217_571" result="shape"/>
</filter>
<filter id="filter8_d_217_571" x="175.128" y="292.105" width="73.5909" height="64.6207" filterUnits="userSpaceOnUse" color-interpolation-filters="sRGB">
<feFlood flood-opacity="0" result="BackgroundImageFix"/>
<feColorMatrix in="SourceAlpha" type="matrix" values="0 0 0 0 0 0 0 0 0 0 0 0 0 0 0 0 0 0 127 0" result="hardAlpha"/>
<feOffset/>
<feGaussianBlur stdDeviation="11.35"/>
<feComposite in2="hardAlpha" operator="out"/>
<feColorMatrix type="matrix" values="0 0 0 0 0.231373 0 0 0 0 0.576471 0 0 0 0 0.552941 0 0 0 1 0"/>
<feBlend mode="normal" in2="BackgroundImageFix" result="effect1_dropShadow_217_571"/>
<feBlend mode="normal" in="SourceGraphic" in2="effect1_dropShadow_217_571" result="shape"/>
</filter>
<clipPath id="clip0_217_571">
<rect width="364" height="347" fill="white"/>
</clipPath>
</defs>
</svg>
