<svg width="382" height="364" viewBox="0 0 382 364" fill="none" xmlns="http://www.w3.org/2000/svg">
<g clip-path="url(#clip0_217_571)">
<g filter="url(#filter0_d_217_571)">
<path d="M285.371 7.40479C284.775 7.70256 283.853 8.43343 283.311 9.05603C282.796 9.65156 282.281 10.1659 282.199 10.1659C282.118 10.1659 281.955 9.73277 281.847 9.21845C281.657 8.13567 281.359 7.86497 280.22 7.62135C278.973 7.35065 278.485 7.94618 278.485 9.78691C278.485 11.0862 278.431 11.2487 277.916 11.2487C277.591 11.2487 276.913 11.5194 276.398 11.8171C275.883 12.142 275.422 12.3314 275.368 12.2773C275.286 12.2232 275.368 11.7359 275.503 11.2216C275.883 9.94933 275.856 9.46208 275.341 8.97482C274.609 8.21688 273.551 8.4605 271.735 9.78691C270.38 10.7614 269.675 11.0862 268.455 11.2487C267.614 11.3569 266.422 11.7088 265.825 12.0337C264.361 12.7646 262.355 15.0384 261.786 16.6084C260.946 18.8552 259.997 19.5319 258.316 19.0718C257.421 18.8281 257.232 18.8823 255.388 20.1275C252.786 21.887 251.999 22.6991 251.593 24.1067C251.322 24.9459 250.834 25.6226 249.722 26.57C248.258 27.8423 246.632 29.6289 243.46 33.4457C242.647 34.4202 241.21 35.8007 240.261 36.5316C239.095 37.3708 238.336 38.2099 238.038 38.8596C237.794 39.428 236.222 41.3229 234.568 43.0554C232.887 44.7878 231.315 46.7098 231.017 47.3324C230.475 48.5776 230.366 49.8498 230.773 50.4995C230.963 50.7973 230.691 51.068 229.472 51.7176C227.33 52.8545 226.598 53.9915 226.788 55.8593C226.869 56.6713 227.14 57.5917 227.357 57.9436C227.818 58.6474 227.682 58.8369 225.893 59.9197C224.321 60.8401 223.643 61.7333 223.779 62.6266C223.887 63.3846 223.751 63.5199 221.203 65.0088C216.459 67.824 213.857 70.3415 213.504 72.48C213.206 74.4019 213.613 74.429 215.998 72.6694C219.766 69.8542 221.339 69.3399 221.501 70.8287C221.556 71.3972 221.285 71.8032 220.173 72.8048C217.787 74.9433 216.405 75.4035 213.857 74.8621C212.501 74.5914 212.122 74.6184 210.495 75.1328C206.645 76.378 201.766 78.9496 193.958 83.8762C189.838 86.4749 189.268 86.9351 189.431 87.4223C189.756 88.5593 189.892 89.9939 189.729 90.6978C189.621 91.1038 189.024 91.9971 188.374 92.6738C187.398 93.7566 187.154 94.2168 186.91 95.7056C186.747 96.6801 186.449 98.2772 186.286 99.2517C185.825 101.688 185.961 101.932 187.723 101.932C189.594 101.932 190.38 102.175 190.38 102.69C190.38 102.933 189.187 104.233 187.75 105.613C185.392 107.833 185.148 108.131 185.5 108.537C185.69 108.807 186.178 109.159 186.557 109.376C187.262 109.728 187.696 109.646 189.675 108.834C190.136 108.618 190.19 108.699 190.027 109.674C189.865 110.729 189.458 111.216 187.479 112.759C186.612 113.436 186.476 113.923 186.557 116.197C186.612 117.551 187.696 118.579 189.783 119.256C190.786 119.581 192.034 120.095 192.521 120.393C194.934 121.774 199.895 119.473 207.838 113.301C210.576 111.162 210.847 110.865 211.823 108.888C212.42 107.752 212.935 106.804 213.016 106.804C213.07 106.804 213.396 107.346 213.694 107.995C214.073 108.861 214.236 109.782 214.236 111.216C214.236 113.68 214.86 117.361 215.619 119.391C215.917 120.231 216.73 121.719 217.354 122.667C218.357 124.156 218.519 124.535 218.303 125.103C217.842 126.321 218.004 126.809 219.116 127.539C219.794 128 220.2 128.46 220.2 128.812C220.2 129.678 221.393 131.492 222.721 132.601C223.941 133.603 223.941 133.63 224.104 135.714C224.456 139.964 224.836 143.483 225.026 143.673C225.134 143.754 226.246 143.646 227.52 143.375C230.149 142.861 229.96 143.077 230.502 139.423C230.691 138.232 230.99 136.96 231.179 136.581C231.505 135.958 231.667 135.904 233.674 135.904C235.409 135.877 236.032 135.769 237.144 135.173C240.586 133.386 244.571 127.485 244.599 124.183C244.599 123.641 244.409 121.638 244.138 119.743C243.433 114.465 243.623 114.113 248.692 111.379C251.755 109.728 253.03 108.807 253.219 108.076C253.301 107.779 253.897 106.452 254.548 105.126C256.039 102.04 256.039 101.769 254.575 101.39C252.542 100.876 252.569 100.903 253.626 99.8202C254.168 99.2517 254.629 98.6562 254.629 98.4667C254.629 97.9524 253.707 97.6276 250.915 97.1674C247.093 96.5718 247.174 96.5989 246.822 95.841C246.388 94.8935 246.415 93.2964 246.903 90.7519C247.12 89.5879 247.31 88.072 247.31 87.4223C247.31 86.3125 247.581 85.7982 250.346 81.8189C256.445 73.0484 261.162 66.7954 263.711 64.1155C264.551 63.2492 264.958 63.0056 265.419 63.141C266.178 63.3305 266.178 63.3305 265.202 60.2445C264.768 58.8369 264.388 57.4564 264.388 57.2127C264.388 56.6172 264.849 56.3736 267.506 55.6427C270.515 54.8035 270.461 54.8577 269.675 53.6937C268.618 52.1237 268.753 51.7718 271.003 50.2559L273.009 48.9024L275.422 49.9852C276.723 50.6078 278.323 51.3386 278.973 51.6364C280.112 52.1778 281.738 53.5583 281.738 54.0185C281.738 54.1539 281.359 54.3163 280.898 54.4246C279.759 54.6682 278.133 56.2112 277.157 57.9165C276.289 59.4324 275.07 62.8703 274.798 64.5486C274.663 65.4419 274.5 65.6314 273.931 65.7126C272.928 65.8208 272.548 66.5788 273.172 67.2555C273.633 67.7699 273.633 67.7969 272.847 68.203C272.386 68.4466 271.193 69.5564 270.163 70.6934C269.16 71.8303 267.804 73.0484 267.181 73.4274C266.205 73.9959 266.015 74.2395 266.015 74.9162C266.015 75.3764 265.717 76.3238 265.337 77.0818C264.66 78.4082 264.66 78.4353 265.039 80.7632C265.256 82.0626 265.554 84.2011 265.744 85.5545C266.096 88.3968 266.693 91.6993 267.045 92.8904C267.696 95.0289 268.048 95.3537 271.735 97.1944C273.714 98.1419 275.476 99.0893 275.666 99.2517C275.91 99.4412 276.75 99.5224 277.862 99.4412C280.491 99.2788 282.416 98.3043 288.055 94.298C293.368 90.5083 295.673 89.2631 297.869 88.9653C299.631 88.7217 300.742 87.9096 304.673 83.9033C307.601 80.9527 309.282 78.6518 311.044 75.1869C312.453 72.3717 312.697 70.5309 311.83 68.8526C310.664 66.5788 308.712 65.0088 306.218 64.332L305.08 64.0343L305.486 63.0598C305.757 62.4101 305.839 61.7063 305.73 61.0566C305.595 60.1633 305.676 59.8385 306.408 58.8369L307.275 57.6729L304.917 57.4834C303.616 57.4022 302.423 57.2398 302.206 57.1857C302.016 57.1045 301.772 56.4548 301.664 55.7781C301.501 54.6141 301.393 54.4516 300.498 54.0997C299.956 53.8832 299.224 53.3418 298.899 52.8816L298.329 52.0695L299.549 48.5776L300.796 45.0856L297.814 41.9184C296.188 40.1589 294.643 38.4265 294.399 38.0475C293.829 37.2083 293.829 36.3151 294.399 33.9329L294.859 32.011L292.962 30.1973C291.579 28.898 290.739 28.3025 289.817 28.0588L288.57 27.7069L287.703 24.1608C287.242 22.1848 286.835 20.4523 286.808 20.317C286.781 20.1545 287.35 19.9109 288.082 19.7214C289.166 19.4507 289.79 19.0447 291.281 17.5559L293.151 15.7151L292.555 15.2279C292.176 14.9301 291.498 14.7677 290.576 14.7677C289.79 14.7677 288.922 14.6053 288.624 14.3887C288.136 14.0098 288.136 13.9827 288.787 13.7391C289.763 13.3601 290.197 12.7646 290.088 11.8983C290.007 11.2216 290.115 11.1404 291.362 10.7885C293.612 10.1659 293.531 10.22 292.88 9.51622C291.932 8.48757 289.194 7.18823 287.784 7.02582C286.835 6.94461 286.184 7.05289 285.371 7.40479Z" fill="#111111"/>
</g>
<g filter="url(#filter1_d_217_571)">
<path d="M94.8464 28.4641C94.765 28.7077 94.6837 29.1138 94.6837 29.4115C94.6837 30.0612 94.4668 30.0612 93.7078 29.3574L93.0843 28.7889L91.2679 29.6281C88.801 30.7921 86.3611 32.2809 86.1714 32.7682C85.7647 33.8509 86.8762 34.8254 89.3974 35.6105C90.9697 36.0977 91.0511 36.2872 89.9667 37.0993C89.1534 37.7219 88.8552 37.8031 87.9064 37.6407C86.1985 37.3429 83.7044 37.4241 83.0538 37.776C82.3218 38.155 81.9423 39.0483 82.1321 40.0228C82.2676 40.7266 82.3489 40.7537 83.8129 40.7537C85.9545 40.7537 87.0931 41.4846 87.0931 42.811C87.0931 43.5689 86.8762 44.002 86.1443 44.7329C85.2225 45.6533 85.1141 45.6803 83.7315 45.5179C82.0236 45.3284 81.8068 45.5179 81.617 47.2774L81.4814 48.5497L82.9725 48.7121C85.2225 48.9828 86.8762 50.0385 89.1805 52.6643C91.4577 55.2359 93.1927 56.4811 94.8193 56.6706C95.4699 56.7247 97.0964 56.5081 98.8857 56.048C102.518 55.1817 105.175 54.911 106.341 55.3171C107.073 55.5878 107.371 55.5336 108.32 55.0464C108.943 54.7486 111.329 53.9636 113.66 53.2869C118.459 51.9334 120.194 51.2025 121.576 49.9844C123.555 48.279 123.989 45.6533 122.742 43.1899C121.929 41.5658 121.874 40.7266 122.606 40.2664C123.311 39.8333 123.311 38.6693 122.606 37.776C122.091 37.1264 122.064 37.0993 121.278 37.5324L120.492 37.9926L120.329 36.991C120.167 35.8541 119.353 34.8796 118.404 34.636C117.347 34.3653 116.941 34.6901 116.615 36.0165C116.263 37.37 116.073 37.5053 115.693 36.6391C115.206 35.6105 114.609 35.448 113.471 36.0165C112.901 36.3143 112.359 36.585 112.251 36.6391C112.115 36.6932 112.034 36.5308 112.034 36.3143C112.034 35.421 110.434 34.7984 108.238 34.8254C105.69 34.8525 104.931 35.0691 104.579 35.827C104.199 36.6662 103.847 36.585 104.172 35.7187C104.524 34.8254 104.524 33.7968 104.172 33.5802C104.009 33.472 103.25 33.499 102.464 33.5802C101.054 33.7697 101.027 33.7968 100.241 35.2856C99.4821 36.7203 99.3465 36.8286 98.3977 36.9098L97.3675 36.991L98.2079 35.3668C99.455 32.8494 99.1839 30.3319 97.476 28.8431C96.4729 27.9498 95.1175 27.7603 94.8464 28.4641Z" fill="#111111"/>
</g>
<g filter="url(#filter2_d_217_571)">
<path d="M294.012 99.2771C291.626 99.5478 287.614 100.549 285.283 101.416C284.415 101.74 282.761 102.661 281.623 103.419C278.993 105.205 278.83 105.801 280.565 107.452C281.704 108.535 281.731 108.589 281.623 110.159C281.487 112.758 282.273 113.164 284.849 111.837C285.743 111.377 285.77 111.377 286.231 112C286.665 112.568 286.665 112.704 286.286 113.407C285.798 114.382 285.77 117.062 286.204 119.633C286.611 121.826 286.286 122.855 285.12 123.342C283.466 124.019 281.758 123.152 279.834 120.608L278.586 119.011H276.716C275.686 119.011 274.547 118.903 274.168 118.74C273.571 118.524 273.381 118.605 272.541 119.606C270.752 121.691 267.417 128.918 267.607 130.299C267.661 130.732 267.96 131.625 268.285 132.302C268.583 132.979 269.044 134.819 269.288 136.362C269.668 138.88 269.803 139.259 270.535 139.963C271.375 140.721 271.403 140.721 273.869 140.558C276.716 140.342 276.716 140.342 276.716 142.453C276.716 143.211 276.472 144.158 276.038 145.025C275.442 146.189 275.36 146.568 275.523 148.084L275.686 149.789L274.601 150.06C273.544 150.33 273.517 150.33 273.083 149.41L272.622 148.463L270.264 148.625C266.604 148.896 263.514 149.329 261.074 149.924C258.471 150.547 258.282 150.466 255.598 148.246C254.54 147.38 253.7 146.892 253.239 146.892C252.019 146.892 247.682 148.49 244.862 149.978C243.371 150.79 240.742 152.171 239.034 153.091C237.326 154.012 235.32 154.959 234.615 155.23C233.856 155.501 232.609 156.286 231.687 157.125C230.223 158.451 230.088 158.532 230.088 157.937C230.088 156.935 229.41 156.231 227.865 155.555C227.079 155.23 226.401 154.905 226.347 154.878C226.293 154.824 226.564 154.499 226.943 154.12C227.323 153.714 227.648 153.146 227.648 152.794C227.648 151.792 226.238 149.275 225.344 148.733C224.286 148.084 224.042 148.111 223.066 148.95C222.036 149.816 221.982 150.736 222.904 151.224C223.798 151.684 223.771 151.873 222.687 152.685C220.627 154.255 217.319 155.04 215.53 154.391C214.988 154.201 214.798 154.337 214.066 155.501C213.253 156.827 213.226 156.827 212.25 156.61C211.708 156.475 211.165 156.367 211.057 156.367C210.922 156.367 210.84 155.934 210.84 155.419C210.84 154.499 210.813 154.499 209.024 153.958C207.994 153.66 206.53 153.281 205.771 153.118C204.985 152.929 204.334 152.712 204.334 152.631C204.361 152.523 204.524 152.144 204.741 151.765C204.957 151.386 205.12 150.628 205.147 150.06C205.147 149.058 205.093 149.004 203.466 148.246C202.518 147.786 201.596 147.434 201.406 147.434C201.189 147.434 201.813 146.595 202.762 145.566C204.551 143.617 206.747 140.206 207.506 138.149C207.912 137.039 208.129 136.877 210.19 135.848C213.172 134.359 212.955 133.791 209.214 133.087C208.4 132.925 207.641 132.708 207.506 132.573C207.37 132.437 207.614 131.382 208.129 130.055C208.943 127.998 209.539 124.425 209.105 124.425C208.455 124.425 206.123 125.941 205.744 126.617C205.337 127.321 205.147 127.402 203.927 127.402C203.195 127.402 201.786 127.484 200.81 127.565L199.048 127.754L197.692 129.622C196.96 130.624 196.31 131.652 196.255 131.869C196.093 132.546 196.96 132.627 197.909 132.031C199.156 131.273 200.837 131.057 202.301 131.463C202.978 131.652 203.521 131.896 203.521 132.004C203.521 132.383 201.054 133.385 199.752 133.547C198.993 133.628 197.801 133.52 196.77 133.249C195.822 133.006 194.981 132.87 194.9 132.952C194.819 133.033 194.737 135.577 194.737 138.582C194.71 143.807 194.737 144.104 195.334 145.025C195.849 145.864 195.93 146.378 195.93 148.463C195.93 151.115 196.445 153.037 197.665 154.824C198.234 155.663 198.261 155.825 197.936 156.61C197.502 157.639 196.418 158.235 195.822 157.747C195.225 157.26 194.846 157.612 194.846 158.641C194.846 159.128 194.71 159.913 194.547 160.4C194.276 161.131 194.141 161.239 193.219 161.239C192.297 161.239 192.026 161.077 190.806 159.696L189.451 158.18L187.906 159.372C187.065 160.021 186.252 160.752 186.089 160.996C185.872 161.348 185.628 161.375 184.842 161.212C182.755 160.698 177.821 161.672 176.059 162.918C175.218 163.513 175.218 163.405 175.761 166.789C175.869 167.655 175.788 168.034 175.327 168.629C174.785 169.306 174.568 169.387 173.321 169.306L171.938 169.225L171.667 166.816L171.396 164.434L170.501 165.868C170.013 166.68 169.01 168.359 168.251 169.631C166.543 172.5 165.703 173.394 162.992 175.18C160.661 176.696 159.332 177.833 159.332 178.293C159.332 178.428 159.143 178.564 158.926 178.564C158.438 178.564 152.067 181.162 151.579 181.569C151.335 181.758 151.064 181.758 150.739 181.596C150.142 181.271 145.751 181.596 144.639 182.029C143.826 182.354 143.419 183.057 142.253 186.035C140.979 189.338 139.895 190.393 136.913 191.287C135.991 191.557 135.612 191.557 134.934 191.287C133.795 190.826 133.226 191.151 131.681 193.181C130.325 195.022 129.702 195.185 127.94 194.291C126.638 193.614 126.178 192.829 126.123 191.151C126.069 190.42 126.042 189.771 126.015 189.744C126.015 189.716 125.391 189.879 124.632 190.095C123.358 190.474 123.223 190.474 122.247 189.906C121.027 189.202 120.593 189.31 119.617 190.556C118.723 191.774 118.614 193.804 119.427 195.185C119.888 195.97 119.915 196.267 119.698 197.458C119.536 198.216 119.183 199.083 118.885 199.407C118.37 199.949 118.153 199.976 115.713 199.813C114.277 199.705 112.921 199.597 112.704 199.516C112.487 199.462 111.972 198.866 111.566 198.189L110.834 196.971L104.382 197.106L97.9296 197.242L97.1706 198.108C96.7639 198.595 96.4386 199.137 96.4386 199.326C96.4386 199.516 96.9537 199.922 97.5772 200.247L98.7429 200.842L97.5501 201.356C96.8995 201.627 96.0862 201.925 95.7338 202.006C95.3814 202.087 95.0831 202.277 95.0831 202.439C95.0831 203.008 95.9235 204.253 96.9537 205.173C98.0381 206.148 98.0923 206.175 99.6646 206.012C101.074 205.85 101.4 205.931 102.674 206.608C104.409 207.555 105.927 209.369 107.201 212.022C107.933 213.565 108.34 214.052 109.126 214.458C109.668 214.756 110.183 214.999 110.237 215.026C110.292 215.081 110.02 215.595 109.614 216.19C109.234 216.786 108.909 217.327 108.909 217.436C108.909 217.544 109.288 218.356 109.722 219.276C110.346 220.549 110.644 221.686 110.969 224.176C111.186 225.963 111.566 228.128 111.783 228.967C112.162 230.483 112.162 230.51 111.457 231.539C110.563 232.865 108.502 237.196 106.984 240.959C105.873 243.747 105.656 244.072 103.623 246.102C101.833 247.889 98.1465 250.948 96.8181 251.733C96.6555 251.841 95.6524 251.625 94.6223 251.273C93.565 250.921 90.9625 250.244 88.8209 249.757C81.2303 248.078 79.8206 247.645 76.0795 245.859C72.3655 244.072 70.1154 243.368 68.8684 243.612C68.4889 243.693 67.6756 243.531 67.0521 243.26C66.4556 242.989 64.8833 242.583 63.5821 242.34C61.0609 241.907 60.2205 241.555 58.2144 240.12C57.3198 239.497 56.6421 239.2 55.9643 239.2C54.5817 239.2 54.2293 239.389 53.3347 240.688L52.5485 241.825L50.1087 241.988C46.476 242.204 45.229 242.989 44.4157 245.507C44.0904 246.427 44.1446 246.617 44.7681 247.754C45.1477 248.457 45.473 249.188 45.473 249.432C45.473 249.648 44.8766 250.542 44.1446 251.354C43.4398 252.193 42.7621 253.113 42.6536 253.438C42.491 253.952 41.4608 254.792 36.8793 258.121C35.7949 258.906 34.9003 259.664 34.9003 259.772C34.9003 259.908 35.1443 260.449 35.4696 260.991C36.2558 262.317 35.9847 263.048 34.1413 264.455C31.6743 266.377 31.0508 267.162 30.9153 268.543C30.7797 269.734 30.5357 270.005 23.6228 277.016C19.692 280.995 16.466 284.352 16.466 284.487C16.466 284.622 16.6557 285.461 16.8997 286.382C17.3877 288.304 18.0654 289.684 19.0685 290.875C19.7733 291.742 19.8004 291.769 19.3667 292.662C19.1227 293.176 18.2552 294.07 17.4148 294.692C15.8153 295.883 15.5713 296.506 16.3575 297.616C17.1708 298.807 16.6557 299.917 14.1074 302.569C12.6978 304.031 11.8574 305.087 12.02 305.249C12.1556 305.358 15.246 305.98 18.9058 306.603L25.5205 307.713L26.9031 309.012C27.635 309.716 29.2887 311.015 30.5628 311.881C34.6021 314.724 36.4185 316.97 36.9606 319.948C37.3673 322.195 39.3463 322.438 46.4218 321.112C52.8467 319.867 56.6421 319.65 61.0338 320.246C63.5007 320.571 64.3953 320.787 64.8562 321.22C65.6153 321.924 66.1303 321.897 67.0792 321.112C67.6485 320.652 68.2991 320.462 69.763 320.327C71.254 320.219 72.7179 319.786 75.971 318.513C78.3296 317.593 81.3116 316.591 82.5857 316.294C83.8599 315.996 85.3238 315.563 85.8117 315.319C86.6521 314.913 86.6792 314.859 86.5166 313.776L86.3539 312.639L88.2245 311.475C89.2275 310.826 91.586 309.499 93.4295 308.552C96.3031 307.036 96.8181 306.657 97.1706 305.872C97.8754 304.139 97.9025 302.569 97.2519 300.377C96.3573 297.399 96.4386 295.585 97.5501 293.718C98.7158 291.796 101.454 289.197 105.602 286.057C107.418 284.703 109.668 282.863 110.59 281.997C112.758 279.993 113.518 279.614 116.093 279.29C117.909 279.073 118.831 278.721 122.843 276.772L127.479 274.525H130.19C131.681 274.525 133.063 274.417 133.226 274.309C133.416 274.201 133.741 273.524 133.931 272.82C134.283 271.656 134.392 271.548 135.341 271.385C136.588 271.169 137.103 270.546 137.103 269.22C137.103 268.489 136.967 268.191 136.615 268.083C136.018 267.947 135.747 266.865 135.747 264.618C135.747 261.559 137.401 258.663 139.868 257.363L141.034 256.741L144.151 258.148C149.031 260.341 148.977 260.314 150.82 259.881C151.688 259.691 152.582 259.502 152.745 259.502C152.935 259.502 153.775 260.124 154.615 260.882C155.456 261.64 156.567 262.425 157.055 262.642C158.275 263.156 162.64 263.156 163.616 262.642C164.022 262.425 166.11 260.395 168.251 258.148C171.721 254.494 172.236 254.061 172.887 254.169C173.809 254.359 175.869 253.519 179.122 251.597C180.532 250.785 182.213 249.838 182.836 249.54L183.948 248.945L185.439 249.621C186.252 250 187.526 250.461 188.231 250.623C189.532 250.948 189.614 251.029 191.674 254.115C194.141 257.769 194.547 258.798 194.764 261.884C195.035 265.538 196.093 266.756 203.521 271.683C206.855 273.903 208.238 275.013 210.271 277.151C213.605 280.643 214.663 281.266 217.075 281.212C218.675 281.184 219.081 281.293 220.139 281.969C221.142 282.592 221.548 283.106 222.362 284.812C223.283 286.734 223.446 286.923 224.747 287.519C225.533 287.898 227.133 288.331 228.326 288.547L230.494 288.899L230.576 289.847C230.657 291.173 231.498 293.934 231.823 294.015C231.985 294.07 232.826 294.232 233.666 294.394C234.805 294.638 235.51 294.99 236.431 295.829C238.438 297.562 239.413 299.592 241.067 305.466C241.88 308.308 241.908 308.254 239.847 309.201C238.98 309.58 238.844 309.824 238.519 311.177C238.329 312.017 237.841 313.478 237.462 314.426C236.811 316.104 236.784 316.158 237.272 316.51C238.383 317.322 240.01 316.835 241.392 315.265C242.043 314.561 243.29 311.584 244.049 308.985C244.537 307.307 245.296 306.467 247.275 305.466C249.281 304.464 249.39 304.302 249.2 302.163C248.956 299.267 248.875 299.023 248.143 299.023C247.655 299.023 245.459 297.778 243.832 296.56C243.317 296.181 245.757 290.929 247.357 289.035L248.143 288.141L249.851 288.574C250.799 288.818 252.318 289.414 253.239 289.901C254.812 290.713 257.875 293.42 258.526 294.557C258.824 295.098 258.824 295.098 259.23 294.584C259.881 293.745 260.017 291.958 259.501 290.686C258.553 288.358 256.926 287.302 247.98 283.188C243.426 281.103 238.492 278.423 238.492 278.071C238.492 277.909 239.034 277.097 239.712 276.285C240.389 275.473 240.932 274.715 240.932 274.634C240.932 274.201 238.519 273.849 235.591 273.849C233.043 273.849 232.013 273.74 230.766 273.307C225.832 271.602 222.714 267.758 221.847 262.29C221.223 258.473 220.518 257.444 216.126 254.142C214.635 253.005 213.063 251.706 212.629 251.246C211.03 249.54 210.732 247.754 211.681 245.48C212.223 244.153 212.25 244.045 211.816 242.989C211.22 241.501 211.247 239.145 211.87 238.604C212.114 238.36 213.931 237.251 215.91 236.114L219.488 234.083L220.708 234.598C221.359 234.896 222.226 235.166 222.606 235.193C222.985 235.22 223.31 235.329 223.31 235.41C223.31 235.491 222.904 236.276 222.416 237.169L221.548 238.794L222.307 240.282C222.714 241.094 223.175 242.286 223.31 242.908C223.527 243.72 223.717 244.018 223.988 243.91C224.53 243.693 226.021 241.392 226.021 240.77C226.021 240.472 226.401 239.849 226.862 239.389L227.729 238.55L228.434 239.47C229.139 240.418 229.79 241.04 231.308 242.286C232.094 242.935 232.121 243.016 232.121 245.344C232.121 246.644 232.257 247.943 232.392 248.187C232.555 248.43 233.233 249.053 233.937 249.594C234.751 250.217 235.266 250.839 235.374 251.381C235.591 252.382 236.811 253.411 238.817 254.304C240.2 254.873 240.416 255.089 240.688 256.01L241.013 257.038H242.558C245.513 257.011 247.817 258.121 251.233 261.153C252.697 262.452 253.456 262.94 254.432 263.183C256.519 263.643 260.64 266.026 262.592 267.866C263.568 268.787 263.676 268.787 265.71 268.272C266.333 268.137 266.414 268.191 266.414 268.814C266.414 269.328 266.577 269.545 267.065 269.68C267.689 269.815 267.716 269.896 267.58 271.9C267.445 273.876 267.499 274.146 268.692 277.205L269.966 280.399L269.017 282.213L268.095 284.027L268.556 285.38C269.18 287.248 270.671 289.197 272.866 290.984C275.74 293.339 276.364 294.124 276.553 295.558C276.689 296.533 276.96 296.993 277.583 297.534C278.939 298.671 280.484 299.321 282.897 299.835L285.174 300.268L284.442 300.756C284.035 301.026 283.548 301.649 283.331 302.163C282.978 302.975 282.978 303.192 283.358 303.896C283.846 304.843 285.174 305.872 286.448 306.305C287.722 306.711 291.68 306.684 295.557 306.197C299.867 305.655 301.657 305.655 301.657 306.197C301.657 307.063 300.843 308.173 300.003 308.471C298.783 308.904 297.726 308.85 294.554 308.227C290.948 307.523 288.265 307.523 287.018 308.2C285.798 308.85 284.849 310.609 284.849 312.287C284.849 314.209 285.499 314.832 288.265 315.671C289.756 316.131 290.65 316.564 290.813 316.916C290.975 317.187 291.165 318.919 291.219 320.733C291.355 323.602 291.436 324.117 291.924 324.631C292.656 325.416 293.822 325.876 294.771 325.768C295.693 325.66 296.777 324.225 296.777 323.088C296.777 322.655 296.858 322.303 296.994 322.303C297.102 322.303 298.024 323.467 299.054 324.875C300.084 326.282 301.006 327.446 301.142 327.446C301.575 327.446 302.145 326.228 302.307 324.902C302.389 324.171 302.524 323.494 302.605 323.44C302.687 323.359 303.581 324.117 304.612 325.091C305.777 326.228 306.699 326.905 307.078 326.905C307.675 326.905 307.675 326.824 307.566 324.766C307.431 322.222 306.807 321.085 304.801 319.596C302.28 317.728 302.443 317.972 302.633 316.456L302.822 315.048L305.343 316.267C308.949 317.999 310.874 317.945 310.874 316.05C310.874 315.103 310.06 314.534 307.431 313.533L305.452 312.775V310.771V308.741L306.211 309.147C306.645 309.364 307.566 309.689 308.298 309.878C309.112 310.068 310.196 310.69 311.226 311.529C313.151 313.072 313.937 313.343 314.913 312.802C316.052 312.152 315.916 311.611 314.154 309.77C313.232 308.822 312.5 307.848 312.5 307.604C312.5 306.738 310.359 305.087 307.051 303.327C303.039 301.216 301.304 299.673 300.057 297.047C299.108 295.017 298.729 293.609 299.135 293.609C299.271 293.609 300.301 293.907 301.385 294.286C303.771 295.098 304.259 295.125 304.612 294.449C305.045 293.664 304.205 292.797 301.169 290.957C299.705 290.063 297.997 288.764 297.373 288.087C296.099 286.707 296.045 286.301 296.506 282.917C296.885 280.291 296.994 280.075 297.726 280.075C298.566 280.075 299.569 281.374 301.548 285.028C303.744 289.116 305.371 290.415 306.374 288.953C306.916 288.168 306.916 286.734 306.401 286.301C305.723 285.759 304.855 284.406 305.127 284.406C305.289 284.406 306.211 285.137 307.187 286.03C309.057 287.708 309.6 287.925 310.467 287.275C311.036 286.869 311.172 287.086 308.027 283.431C306.563 281.699 307.458 281.726 310.359 283.512C312.338 284.731 312.88 284.947 313.07 284.649C313.639 283.729 313.205 282.809 311.335 281.076C310.467 280.291 310.277 280.02 310.82 280.372C312.039 281.239 312.473 280.887 313.259 278.559C313.612 277.53 314.154 276.42 314.452 276.095C315.076 275.419 317.895 274.39 319.061 274.39C319.495 274.39 320.823 274.119 322.07 273.822C323.778 273.361 324.754 273.28 326.435 273.388C327.709 273.47 328.82 273.415 329.2 273.253C329.552 273.091 329.932 273.009 330.013 273.091C330.094 273.199 329.715 274.255 329.2 275.473C328.251 277.611 328.007 278.721 328.441 278.721C328.983 278.721 333.591 275.635 334.54 274.634C335.354 273.794 335.57 273.388 335.489 272.766C335.435 272.062 335.598 271.845 336.899 271.006C339.339 269.463 340.531 269.003 344.652 267.866C349.288 266.621 349.938 266.323 350.372 265.186L350.697 264.347L347.526 262.831C344.245 261.261 343.107 260.395 338.281 255.793L336.221 253.817L337.116 252.193C337.929 250.677 338.01 250.325 338.092 247.781C338.146 245.886 338.417 244.072 338.932 241.988L339.691 238.956L339.122 234.544C338.796 231.918 338.661 230.077 338.824 229.969C338.959 229.888 340.342 228.561 341.914 227.045L344.733 224.257L344.354 223.391C342.971 220.224 342.05 218.004 342.104 217.95C342.158 217.896 342.836 218.004 343.622 218.167C344.516 218.356 345.113 218.356 345.276 218.194C345.411 218.058 345.682 216.84 345.926 215.487C346.658 211.047 348.42 208.286 351.402 206.933C352.514 206.418 353.219 206.31 355.496 206.31H358.261L358.424 200.084C358.505 196.646 358.668 190.15 358.749 185.656L358.912 177.427L358.207 177.887C357.204 178.537 354.439 178.32 350.725 177.264C345.547 175.83 344.516 175.722 342.348 176.371C339.989 177.075 339.881 177.075 338.281 176.263C337.549 175.911 336.411 175.478 335.76 175.315L334.54 174.991L334.811 173.502C335.055 172.067 335.055 172.013 334.215 171.147C333.646 170.578 333.158 169.604 332.805 168.467C332.29 166.734 331.829 166.166 329.85 164.758C329.362 164.406 329.254 163.973 329.118 161.564L328.956 158.749L330.691 159.886C331.64 160.508 332.534 161.104 332.697 161.266C333.158 161.7 333.835 161.537 334.296 160.833C334.567 160.454 335.055 160.021 335.435 159.886C336.872 159.344 335.896 156.421 333.7 154.689C332.995 154.12 331.667 153.118 330.772 152.469C329.85 151.819 328.739 150.818 328.332 150.249L327.546 149.22L327.627 145.106L327.709 140.991L326.868 140.044C325.865 138.88 324.645 138.176 320.986 136.633C319.332 135.929 317.732 135.036 317.028 134.413C315.672 133.222 309.708 126.699 308.759 125.372L308.136 124.506L308.705 122.774C310.684 116.899 309.085 114.734 302.172 113.922C301.06 113.786 299.623 113.407 299 113.083L297.834 112.487L299.434 111.215C301.169 109.834 302.226 108.562 302.036 108.075C301.982 107.912 301.521 107.533 301.06 107.236C300.599 106.938 299.922 106.505 299.569 106.288C298.783 105.774 298.783 105.341 299.596 104.583C299.949 104.258 300.301 103.689 300.41 103.311C300.518 102.932 300.789 102.174 301.033 101.605C301.467 100.631 301.44 100.549 300.952 100.062C300.491 99.602 297.617 98.9252 296.506 99.0065C296.289 99.0335 295.177 99.1689 294.012 99.2771Z" fill="#111111"/>
</g>
<g filter="url(#filter3_d_217_571)">
<path d="M124.504 107.48C123.826 107.697 122.958 108.211 122.579 108.617C121.82 109.429 120.979 111.351 120.979 112.271C120.979 112.813 121.061 112.84 122.742 112.677C124.666 112.488 126.7 111.73 127.676 110.81C128.353 110.16 128.706 108.779 128.462 107.751C128.299 107.155 128.163 107.074 126.998 107.101C126.293 107.101 125.181 107.291 124.504 107.48Z" fill="#111111"/>
</g>
<g filter="url(#filter4_d_217_571)">
<path d="M133.043 109.97C131.688 110.133 129.98 111.405 126.239 115.087L123.447 117.821L122.579 116.927C121.413 115.736 120.193 115.33 118.946 115.736C118.431 115.899 117.998 116.142 117.998 116.278C117.998 116.413 118.486 117.415 119.109 118.552C119.841 119.905 120.519 120.771 121.142 121.15C121.657 121.475 122.064 121.773 122.064 121.8C122.064 121.827 120.925 122.45 119.516 123.153C116.507 124.669 114.609 126.375 114.175 127.972C113.769 129.569 113.958 129.812 115.639 129.812C118.242 129.812 119.624 130.11 119.624 130.652C119.624 130.895 118.675 132.574 117.51 134.333C116.344 136.093 115.314 137.663 115.205 137.852C115.043 138.096 115.205 138.096 115.883 137.879C118.73 136.959 119.895 136.742 120.193 137.04C120.627 137.473 119.868 138.718 118.567 139.693C117.428 140.532 117.211 141.073 117.808 141.777C118.892 143.104 120.383 143.374 123.284 142.698C125.642 142.129 126.537 142.102 127.052 142.508C127.865 143.185 127.486 144.728 126.049 146.65L125.48 147.408L126.076 149.086C127.106 152.009 126.862 152.876 124.395 155.204C122.606 156.909 122.471 156.909 118.974 155.231C117.645 154.581 116.561 154.229 116.29 154.337C115.72 154.554 115.693 155.853 116.208 157.369L116.615 158.479L115.476 158.56C113.796 158.669 113.823 159.372 115.531 160.428C117.049 161.348 117.184 161.727 116.371 163.027C115.585 164.326 114.121 165.138 110.949 166.086C109.404 166.546 108.048 167.006 107.94 167.114C107.533 167.574 106.557 170.444 106.693 170.769C106.801 171.066 107.859 171.175 110.949 171.31L115.07 171.472L115.802 172.339C116.48 173.151 116.642 173.205 118.35 173.232C119.353 173.259 120.166 173.34 120.166 173.421C120.166 173.719 118.35 175.235 117.483 175.668C116.805 176.047 116.507 176.02 114.311 175.425C112.982 175.046 111.708 174.802 111.464 174.883C110.976 175.046 108.916 177.157 108.238 178.213C107.913 178.673 106.503 179.269 102.057 180.73C96.3101 182.652 96.283 182.652 96.771 183.194C98.0722 184.655 100.837 184.872 105.473 183.816C107.127 183.437 108.862 183.139 109.323 183.139C109.946 183.139 110.217 183.302 110.461 183.816C110.624 184.195 110.868 184.493 111.003 184.493C111.112 184.493 111.817 184.06 112.549 183.545C115.205 181.624 116.534 181.434 118.296 182.76C119.462 183.6 120.275 183.573 123.42 182.598C124.802 182.138 126.049 181.786 126.185 181.786C126.293 181.786 126.754 182.327 127.215 183.004C128.353 184.655 129.736 185.684 130.549 185.467C131.308 185.278 131.823 184.276 131.823 182.977C131.823 182.192 131.905 182.057 132.311 182.165C134.914 182.95 137.787 183.058 140.607 182.463C143.182 181.921 146.734 179.891 146.734 178.944C146.734 178.375 145.785 177.753 144.158 177.184C143.264 176.886 142.45 176.534 142.315 176.399C142.179 176.264 142.667 175.749 143.399 175.208C144.131 174.694 144.944 173.99 145.215 173.692C145.514 173.367 146.002 173.124 146.3 173.124C147.737 173.124 151.64 170.687 152.969 168.982C153.484 168.332 153.538 168.143 153.24 167.439C152.779 166.329 151.044 164.813 149.797 164.489C149.228 164.326 147.466 164.191 145.866 164.191C144.158 164.191 142.938 164.082 142.938 163.92C142.938 163.785 143.562 162.106 144.321 160.212C146.734 154.31 146.517 151.982 143.318 149.059L141.556 147.435L141.718 146.244C141.935 144.809 141.664 144.538 140.363 144.971C139.414 145.296 138.33 144.998 138.33 144.43C138.33 144.268 138.818 143.022 139.387 141.642C140.688 138.583 140.932 137.392 140.498 136.282C140.146 135.47 139.007 134.685 138.194 134.685C137.923 134.685 137.408 134.441 136.974 134.144C136.568 133.846 135.917 133.494 135.51 133.331C134.805 133.088 134.805 133.061 135.185 132.113C135.917 130.381 137.164 128.919 141.149 124.994C144.917 121.286 145.649 120.311 145.27 119.391C144.89 118.362 141.474 118.173 136.432 118.849C134.86 119.066 133.477 119.255 133.314 119.255C132.718 119.255 135.998 116.305 139.333 113.814C141.285 112.353 142.965 111.026 143.047 110.918C143.101 110.81 143.074 110.539 142.938 110.322C142.748 109.998 141.827 109.916 138.411 109.889C136.052 109.862 133.64 109.916 133.043 109.97Z" fill="#111111"/>
</g>
<g filter="url(#filter5_d_217_571)">
<path d="M103.955 135.389C102.166 135.849 101.217 136.336 100.403 137.229C99.9697 137.69 99.4546 137.933 98.8853 137.933C97.8009 137.933 96.8792 138.8 97.3672 139.395C97.5298 139.612 98.0991 139.855 98.6142 139.936C99.4275 140.099 99.563 140.234 99.563 140.884C99.563 141.506 99.3733 141.723 98.4516 142.129C97.5569 142.535 97.2587 142.562 96.9063 142.319C94.9816 140.911 91.4031 140.261 89.4241 140.911C88.15 141.317 86.5505 142.698 86.5505 143.347C86.5505 143.645 86.7945 144.024 87.0656 144.213C87.3638 144.43 87.7434 144.917 87.9331 145.323C88.3669 146.298 87.9602 146.731 86.1981 147.137C83.9752 147.624 83.8396 147.705 83.8396 148.057C83.8396 148.626 84.8969 149.817 85.7915 150.277C86.2523 150.521 87.4723 150.845 88.5566 151.035L90.4814 151.36L88.9633 151.874C87.1469 152.443 86.2252 152.28 85.7915 151.306C85.3306 150.358 84.8698 150.602 84.3276 152.118C84.0836 152.849 83.8125 153.471 83.7312 153.552C83.6498 153.634 83.0263 153.498 82.3215 153.255C81.6166 153.011 80.8034 152.822 80.5323 152.822C79.8003 152.822 78.9599 153.796 78.9599 154.662C78.9599 155.258 79.1497 155.528 79.8274 155.826L80.6949 156.232L79.0141 156.611C78.0924 156.801 77.1978 157.126 77.0352 157.315C76.7098 157.694 77.008 158.452 77.7129 159.048C78.3364 159.562 78.2551 159.914 77.1707 161.159C76.6556 161.782 76.249 162.485 76.3032 162.729C76.3574 163 77.496 163.649 79.0955 164.38L81.8064 165.571L85.0595 165.274C89.9121 164.84 94.5749 164.218 96.7166 163.731C100.675 162.837 104.578 160.888 106.34 158.885C108.157 156.801 109.485 153.065 109.268 150.71L109.133 149.438L111.735 147.678L114.338 145.919L114.365 142.806C114.392 140.424 114.311 139.422 113.931 138.475C113.307 136.905 112.874 136.634 111.627 137.094C110.976 137.311 110.542 137.338 110.325 137.175C110.136 137.013 109.404 136.742 108.672 136.553C107.533 136.282 107.398 136.174 107.506 135.605C107.615 135.01 107.533 134.956 106.503 134.983C105.907 134.983 104.741 135.172 103.955 135.389Z" fill="#111111"/>
</g>
<g filter="url(#filter6_d_217_571)">
<path d="M183.196 265.053C179.048 268.436 178.56 268.978 178.018 271.17C177.72 272.307 177.503 274.094 177.503 275.339C177.503 277.234 177.611 277.667 178.208 278.587C179.075 279.887 181.434 281.267 182.383 281.024C183.277 280.807 185.066 278.371 185.934 276.259C187.317 272.849 187.777 268.166 187.018 265.594C186.639 264.403 185.907 263.239 185.527 263.293C185.446 263.293 184.389 264.078 183.196 265.053Z" fill="#111111"/>
</g>
<g filter="url(#filter7_d_217_571)">
<path d="M181.162 283.703C180.485 284.245 178.777 285.327 177.34 286.14C173.897 288.089 173.734 288.413 173.789 293.8C173.816 297.076 173.707 298.158 173.138 300.703C172.379 304.032 172.162 306.902 172.677 307.416C172.921 307.66 173.328 307.633 174.439 307.389C175.551 307.118 176.201 306.712 177.421 305.575C178.994 304.06 179.59 303.897 180.349 304.818C180.539 305.034 180.783 305.224 180.918 305.224C181.217 305.224 182.166 303.302 183.304 300.432L184.199 298.213L183.467 296.318C182.572 294.098 182.681 293.313 183.982 292.528C185.093 291.824 185.337 290.579 184.931 287.764C184.66 285.706 183.44 282.918 182.789 282.837C182.572 282.783 181.84 283.189 181.162 283.703Z" fill="#111111"/>
</g>
<g filter="url(#filter8_d_217_571)">
<path d="M230.692 314.996C229.851 315.104 227.384 315.726 225.215 316.349C220.39 317.73 218.357 317.757 215.781 316.484L214.209 315.726L212.393 316.268C211.39 316.566 209.871 316.945 209.031 317.134C206.754 317.594 205.805 318.325 205.154 320.166C204.531 322.007 204.694 322.44 206.591 323.983C208.57 325.553 212.04 327.231 218.628 329.748C221.962 331.021 225.703 332.509 226.95 333.051L229.228 334.025L229.878 333.213C231.288 331.508 231.451 330.967 231.315 328.233C231.071 322.467 231.125 321.113 231.749 320.247C232.508 319.164 232.914 317.838 232.996 316.187C233.077 314.644 233.077 314.644 230.692 314.996Z" fill="#111111"/>
</g>
</g>
<defs>
<filter id="filter0_d_217_571" x="162.67" y="-15.7" width="172.364" height="182.099" filterUnits="userSpaceOnUse" color-interpolation-filters="sRGB">
<feFlood flood-opacity="0" result="BackgroundImageFix"/>
<feColorMatrix in="SourceAlpha" type="matrix" values="0 0 0 0 0 0 0 0 0 0 0 0 0 0 0 0 0 0 127 0" result="hardAlpha"/>
<feOffset/>
<feGaussianBlur stdDeviation="11.35"/>
<feComposite in2="hardAlpha" operator="out"/>
<feColorMatrix type="matrix" values="0 0 0 0 0.231373 0 0 0 0 0.576471 0 0 0 0 0.552941 0 0 0 1 0"/>
<feBlend mode="normal" in2="BackgroundImageFix" result="effect1_dropShadow_217_571"/>
<feBlend mode="normal" in="SourceGraphic" in2="effect1_dropShadow_217_571" result="shape"/>
</filter>
<filter id="filter1_d_217_571" x="58.7814" y="5.33613" width="87.3614" height="74.0426" filterUnits="userSpaceOnUse" color-interpolation-filters="sRGB">
<feFlood flood-opacity="0" result="BackgroundImageFix"/>
<feColorMatrix in="SourceAlpha" type="matrix" values="0 0 0 0 0 0 0 0 0 0 0 0 0 0 0 0 0 0 127 0" result="hardAlpha"/>
<feOffset/>
<feGaussianBlur stdDeviation="11.35"/>
<feComposite in2="hardAlpha" operator="out"/>
<feColorMatrix type="matrix" values="0 0 0 0 0.231373 0 0 0 0 0.576471 0 0 0 0 0.552941 0 0 0 1 0"/>
<feBlend mode="normal" in2="BackgroundImageFix" result="effect1_dropShadow_217_571"/>
<feBlend mode="normal" in="SourceGraphic" in2="effect1_dropShadow_217_571" result="shape"/>
</filter>
<filter id="filter2_d_217_571" x="-10.7" y="76.3" width="392.312" height="273.846" filterUnits="userSpaceOnUse" color-interpolation-filters="sRGB">
<feFlood flood-opacity="0" result="BackgroundImageFix"/>
<feColorMatrix in="SourceAlpha" type="matrix" values="0 0 0 0 0 0 0 0 0 0 0 0 0 0 0 0 0 0 127 0" result="hardAlpha"/>
<feOffset/>
<feGaussianBlur stdDeviation="11.35"/>
<feComposite in2="hardAlpha" operator="out"/>
<feColorMatrix type="matrix" values="0 0 0 0 0.231373 0 0 0 0 0.576471 0 0 0 0 0.552941 0 0 0 1 0"/>
<feBlend mode="normal" in2="BackgroundImageFix" result="effect1_dropShadow_217_571"/>
<feBlend mode="normal" in="SourceGraphic" in2="effect1_dropShadow_217_571" result="shape"/>
</filter>
<filter id="filter3_d_217_571" x="98.2795" y="84.3967" width="52.9596" height="51.068" filterUnits="userSpaceOnUse" color-interpolation-filters="sRGB">
<feFlood flood-opacity="0" result="BackgroundImageFix"/>
<feColorMatrix in="SourceAlpha" type="matrix" values="0 0 0 0 0 0 0 0 0 0 0 0 0 0 0 0 0 0 127 0" result="hardAlpha"/>
<feOffset/>
<feGaussianBlur stdDeviation="11.35"/>
<feComposite in2="hardAlpha" operator="out"/>
<feColorMatrix type="matrix" values="0 0 0 0 0.231373 0 0 0 0 0.576471 0 0 0 0 0.552941 0 0 0 1 0"/>
<feBlend mode="normal" in2="BackgroundImageFix" result="effect1_dropShadow_217_571"/>
<feBlend mode="normal" in="SourceGraphic" in2="effect1_dropShadow_217_571" result="shape"/>
</filter>
<filter id="filter4_d_217_571" x="73.8791" y="87.1818" width="102.242" height="121.014" filterUnits="userSpaceOnUse" color-interpolation-filters="sRGB">
<feFlood flood-opacity="0" result="BackgroundImageFix"/>
<feColorMatrix in="SourceAlpha" type="matrix" values="0 0 0 0 0 0 0 0 0 0 0 0 0 0 0 0 0 0 127 0" result="hardAlpha"/>
<feOffset/>
<feGaussianBlur stdDeviation="11.35"/>
<feComposite in2="hardAlpha" operator="out"/>
<feColorMatrix type="matrix" values="0 0 0 0 0.231373 0 0 0 0 0.576471 0 0 0 0 0.552941 0 0 0 1 0"/>
<feBlend mode="normal" in2="BackgroundImageFix" result="effect1_dropShadow_217_571"/>
<feBlend mode="normal" in="SourceGraphic" in2="effect1_dropShadow_217_571" result="shape"/>
</filter>
<filter id="filter5_d_217_571" x="53.5983" y="112.278" width="83.4713" height="75.9938" filterUnits="userSpaceOnUse" color-interpolation-filters="sRGB">
<feFlood flood-opacity="0" result="BackgroundImageFix"/>
<feColorMatrix in="SourceAlpha" type="matrix" values="0 0 0 0 0 0 0 0 0 0 0 0 0 0 0 0 0 0 127 0" result="hardAlpha"/>
<feOffset/>
<feGaussianBlur stdDeviation="11.35"/>
<feComposite in2="hardAlpha" operator="out"/>
<feColorMatrix type="matrix" values="0 0 0 0 0.231373 0 0 0 0 0.576471 0 0 0 0 0.552941 0 0 0 1 0"/>
<feBlend mode="normal" in2="BackgroundImageFix" result="effect1_dropShadow_217_571"/>
<feBlend mode="normal" in="SourceGraphic" in2="effect1_dropShadow_217_571" result="shape"/>
</filter>
<filter id="filter6_d_217_571" x="154.803" y="240.591" width="55.2794" height="63.1607" filterUnits="userSpaceOnUse" color-interpolation-filters="sRGB">
<feFlood flood-opacity="0" result="BackgroundImageFix"/>
<feColorMatrix in="SourceAlpha" type="matrix" values="0 0 0 0 0 0 0 0 0 0 0 0 0 0 0 0 0 0 127 0" result="hardAlpha"/>
<feOffset/>
<feGaussianBlur stdDeviation="11.35"/>
<feComposite in2="hardAlpha" operator="out"/>
<feColorMatrix type="matrix" values="0 0 0 0 0.231373 0 0 0 0 0.576471 0 0 0 0 0.552941 0 0 0 1 0"/>
<feBlend mode="normal" in2="BackgroundImageFix" result="effect1_dropShadow_217_571"/>
<feBlend mode="normal" in="SourceGraphic" in2="effect1_dropShadow_217_571" result="shape"/>
</filter>
<filter id="filter7_d_217_571" x="149.696" y="260.132" width="58.1188" height="70.1539" filterUnits="userSpaceOnUse" color-interpolation-filters="sRGB">
<feFlood flood-opacity="0" result="BackgroundImageFix"/>
<feColorMatrix in="SourceAlpha" type="matrix" values="0 0 0 0 0 0 0 0 0 0 0 0 0 0 0 0 0 0 127 0" result="hardAlpha"/>
<feOffset/>
<feGaussianBlur stdDeviation="11.35"/>
<feComposite in2="hardAlpha" operator="out"/>
<feColorMatrix type="matrix" values="0 0 0 0 0.231373 0 0 0 0 0.576471 0 0 0 0 0.552941 0 0 0 1 0"/>
<feBlend mode="normal" in2="BackgroundImageFix" result="effect1_dropShadow_217_571"/>
<feBlend mode="normal" in="SourceGraphic" in2="effect1_dropShadow_217_571" result="shape"/>
</filter>
<filter id="filter8_d_217_571" x="182.128" y="292.105" width="73.5909" height="64.6207" filterUnits="userSpaceOnUse" color-interpolation-filters="sRGB">
<feFlood flood-opacity="0" result="BackgroundImageFix"/>
<feColorMatrix in="SourceAlpha" type="matrix" values="0 0 0 0 0 0 0 0 0 0 0 0 0 0 0 0 0 0 127 0" result="hardAlpha"/>
<feOffset/>
<feGaussianBlur stdDeviation="11.35"/>
<feComposite in2="hardAlpha" operator="out"/>
<feColorMatrix type="matrix" values="0 0 0 0 0.231373 0 0 0 0 0.576471 0 0 0 0 0.552941 0 0 0 1 0"/>
<feBlend mode="normal" in2="BackgroundImageFix" result="effect1_dropShadow_217_571"/>
<feBlend mode="normal" in="SourceGraphic" in2="effect1_dropShadow_217_571" result="shape"/>
</filter>
<clipPath id="clip0_217_571">
<rect width="382" height="364" fill="white"/>
</clipPath>
</defs>
</svg>
